<?xml version="1.0" encoding="UTF-8"?>
<svg xmlns="http://www.w3.org/2000/svg" width="150" height="150" version="1.1" viewBox="0 0 150 150">
  <!-- Generator: Adobe Illustrator 28.6.0, SVG Export Plug-In . SVG Version: 1.2.0 Build 709)  -->
  <g>
    <g id="shapes">
      <path d="M128.652,81.681c-33.903-3.124-36.72-9.044-15.349-34.729,1.159-1.393-.702-3.254-2.095-2.095-25.682,21.369-31.603,18.554-34.728-15.339-.166-1.798-2.796-1.798-2.962,0-3.124,33.894-9.046,36.708-34.728,15.339-1.393-1.159-3.254.701-2.095,2.095,21.371,25.684,18.554,31.605-15.349,34.729-.899.083-1.348.781-1.348,1.48s.45,1.397,1.348,1.48c33.903,3.124,36.72,9.044,15.348,34.73-1.159,1.393.7,3.255,2.094,2.095,4.471-3.72,8.343-6.707,11.706-8.923,11.696-7.709,18.555-20.943,18.555-34.951v-8.982c0-3.107,2.271-5.882,5.365-6.178,3.548-.339,6.534,2.443,6.534,5.922v9.239c0,14.008,6.859,27.242,18.555,34.951,3.362,2.216,7.234,5.203,11.706,8.923,1.393,1.159,3.253-.702,2.094-2.095-21.372-25.685-18.555-31.606,15.348-34.73.898-.083,1.348-.781,1.348-1.48s-.449-1.397-1.348-1.48Z"/>
    </g>
  </g>
</svg>