<?xml version="1.0" encoding="UTF-8"?>
<svg xmlns="http://www.w3.org/2000/svg" width="150" height="150" version="1.1" viewBox="0 0 150 150">
  <!-- Generator: Adobe Illustrator 28.6.0, SVG Export Plug-In . SVG Version: 1.2.0 Build 709)  -->
  <g>
    <g id="shapes">
      <path d="M126.562,68.125c-3.437,0-3.437-3.438-3.437-3.438,0-3.437-3.438-3.437-3.438-3.437h-13.75c-3.438,0-3.438-3.437-3.438-3.437,0-3.438-3.438-3.438-3.438-3.438-3.437,0-3.437-3.438-3.437-3.438,0-3.438-3.438-3.438-3.438-3.438-3.437,0-3.437-3.437-3.437-3.437v-13.75c0-3.437-3.438-3.437-3.438-3.437-3.437,0-3.437-3.438-3.437-3.438,0-3.438-3.438-3.438-3.438-3.438h-6.875c-3.437,0-3.437,3.438-3.437,3.438,0,3.438-3.438,3.438-3.438,3.438-3.437,0-3.437,3.437-3.437,3.437v13.75c0,3.437-3.438,3.437-3.438,3.437-3.437,0-3.437,3.438-3.437,3.438,0,3.438-3.438,3.438-3.438,3.438-3.437,0-3.437,3.438-3.437,3.438,0,3.437-3.438,3.437-3.438,3.437h-13.75c-3.437,0-3.437,3.437-3.437,3.437,0,3.438-3.438,3.438-3.438,3.438-3.437,0-3.437,3.438-3.437,3.438v6.875c0,3.438,3.437,3.438,3.437,3.438,3.438,0,3.438,3.437,3.438,3.437,0,3.438,3.437,3.438,3.437,3.438h13.75c3.438,0,3.438,3.437,3.438,3.437,0,3.438,3.437,3.438,3.437,3.438,3.438,0,3.438,3.438,3.438,3.438,0,3.438,3.437,3.438,3.437,3.438,3.438,0,3.438,3.438,3.438,3.438v13.75c0,3.438,3.437,3.438,3.437,3.438,3.438,0,3.438,3.438,3.438,3.438,0,3.437,3.437,3.437,3.437,3.437h6.875c3.438,0,3.438-3.437,3.438-3.437,0-3.438,3.437-3.438,3.437-3.438,3.438,0,3.438-3.438,3.438-3.438v-13.75c0-3.438,3.437-3.438,3.437-3.438,3.438,0,3.438-3.438,3.438-3.438,0-3.438,3.437-3.438,3.437-3.438,3.438,0,3.438-3.438,3.438-3.438,0-3.437,3.438-3.437,3.438-3.437h13.75c3.438,0,3.438-3.438,3.438-3.438,0-3.437,3.437-3.437,3.437-3.437,3.438,0,3.438-3.438,3.438-3.438v-6.875c0-3.438-3.438-3.438-3.438-3.438ZM102.5,77.578c0,4.297-4.297,4.297-4.297,4.297h-6.016c-3.437,0-3.437,3.437-3.437,3.437,0,3.438-3.438,3.438-3.438,3.438-3.437,0-3.437,3.437-3.437,3.437v6.016c0,4.297-4.297,4.297-4.297,4.297h-5.156c-4.297,0-4.297-4.297-4.297-4.297v-6.016c0-3.437-3.438-3.437-3.438-3.437-3.437,0-3.437-3.438-3.437-3.438,0-3.437-3.438-3.437-3.438-3.437h-6.016c-4.297,0-4.297-4.297-4.297-4.297v-5.156c0-4.297,4.297-4.297,4.297-4.297h6.016c3.438,0,3.438-3.438,3.438-3.438,0-3.437,3.437-3.437,3.437-3.437,3.438,0,3.438-3.437,3.438-3.437v-6.016c0-4.297,4.297-4.297,4.297-4.297h5.156c4.297,0,4.297,4.297,4.297,4.297v6.016c0,3.437,3.437,3.437,3.437,3.437,3.438,0,3.438,3.437,3.438,3.437,0,3.438,3.437,3.438,3.437,3.438h6.016c4.297,0,4.297,4.297,4.297,4.297v5.156Z"/>
    </g>
  </g>
</svg>