<?xml version="1.0" encoding="UTF-8"?>
<svg xmlns="http://www.w3.org/2000/svg" width="150" height="150" version="1.1" viewBox="0 0 150 150">
  <!-- Generator: Adobe Illustrator 28.6.0, SVG Export Plug-In . SVG Version: 1.2.0 Build 709)  -->
  <g>
    <g id="shapes">
      <g>
        <path d="M128.652,73.52c-33.899-3.124-36.719-9.043-15.357-34.719,1.16-1.394-.702-3.256-2.097-2.096-25.671,21.358-31.593,18.542-34.717-15.337-.166-1.799-2.798-1.799-2.964,0-3.124,33.88-9.046,36.696-34.717,15.337-1.394-1.16-3.257.702-2.097,2.096,21.362,25.676,18.541,31.595-15.357,34.719-.899.083-1.348.781-1.348,1.48s.449,1.397,1.348,1.48c33.899,3.124,36.719,9.043,15.357,34.719-1.16,1.394.702,3.256,2.097,2.096,25.671-21.358,31.593-18.542,34.717,15.337.166,1.799,2.798,1.799,2.964,0,3.124-33.88,9.046-36.696,34.717-15.337,1.394,1.16,3.257-.702,2.097-2.096-21.362-25.676-18.542-31.595,15.357-34.719.899-.083,1.348-.781,1.348-1.48,0-.699-.449-1.397-1.348-1.48ZM105.417,75c-4.519,0-8.891,1.604-12.337,4.525l-2.434,2.063c-4.145,3.513-7.603,7.703-11.004,11.941-1.09,1.359-2.765,2.229-4.642,2.229s-3.552-.87-4.642-2.229c-3.401-4.237-6.86-8.428-11.004-11.941l-2.434-2.063c-3.447-2.922-7.819-4.525-12.337-4.525h0c4.519,0,8.891-1.604,12.337-4.525l2.434-2.063c4.145-3.513,7.603-7.704,11.004-11.941,1.09-1.359,2.765-2.229,4.642-2.229s3.552.87,4.643,2.229c3.401,4.237,6.86,8.428,11.004,11.941l2.434,2.063c3.447,2.922,7.819,4.525,12.337,4.525h0Z"/>
        <circle cx="75" cy="75" r="13.538"/>
      </g>
    </g>
  </g>
</svg>