<?xml version="1.0" encoding="UTF-8"?>
<svg xmlns="http://www.w3.org/2000/svg" width="150" height="150" version="1.1" viewBox="0 0 150 150">
  <!-- Generator: Adobe Illustrator 28.6.0, SVG Export Plug-In . SVG Version: 1.2.0 Build 709)  -->
  <g>
    <g id="shapes">
      <g>
        <path d="M130,67.599h-35.948l25.419-25.418-11.65-11.652-25.42,25.42V20h-16.476v35.949l-25.42-25.42-11.65,11.652,23.744,23.743h20.65c1.082,0,2.127.164,3.114.461.943.284,1.829.698,2.646,1.214,1.369.865,2.529,2.025,3.394,3.394.515.816.929,1.701,1.213,2.644.298.988.462,2.033.462,3.116v20.649l23.744,23.744,11.652-11.652-25.419-25.419h35.948v-16.476Z"/>
        <path d="M56.771,85.752h-4.175l-23.743,23.743,11.652,11.652,23.744-23.744v-4.173c0-4.123-3.355-7.478-7.478-7.478Z"/>
        <path d="M78.533,71.467h0c-1.151-1.151-2.674-1.923-4.37-2.131-.3-.037-.605-.062-.915-.062H20v13.127h36.771c2.117,0,4.087.62,5.758,1.674,1.37.865,2.531,2.025,3.396,3.395,1.055,1.67,1.675,3.642,1.675,5.76v36.77h13.126v-53.246c0-.311-.025-.615-.062-.916-.208-1.696-.98-3.22-2.13-4.37Z"/>
      </g>
    </g>
  </g>
</svg>