<?xml version="1.0" encoding="UTF-8"?>
<svg xmlns="http://www.w3.org/2000/svg" version="1.1" viewBox="0 0 1000 1000">
  <!-- Generator: Adobe Illustrator 28.6.0, SVG Export Plug-In . SVG Version: 1.2.0 Build 709)  -->
  <g>
    <g id="Assets">
      <g>
        <rect x="738.961" y="879.221" width="10.39" height="10.39"/>
        <rect x="167.532" y="827.273" width="10.39" height="10.39"/>
        <rect x="863.636" y="827.273" width="10.39" height="10.39"/>
        <polygon points="167.532 837.662 146.753 837.662 146.753 848.052 157.143 848.052 157.143 858.442 177.922 858.442 177.922 848.052 167.532 848.052 167.532 837.662"/>
        <rect x="718.182" y="879.221" width="10.39" height="10.39"/>
        <rect x="884.416" y="796.104" width="10.39" height="10.39"/>
        <rect x="874.026" y="806.494" width="10.39" height="10.39"/>
        <rect x="198.701" y="827.273" width="20.779" height="10.39"/>
        <rect x="884.416" y="816.883" width="10.39" height="10.39"/>
        <rect x="697.403" y="879.221" width="10.39" height="10.39"/>
        <rect x="832.468" y="848.052" width="10.39" height="10.39"/>
        <rect x="292.208" y="297.403" width="10.39" height="10.39"/>
        <polygon points="177.922 848.052 188.312 848.052 188.312 858.442 198.701 858.442 198.701 837.662 177.922 837.662 177.922 848.052"/>
        <polygon points="759.74 900 770.13 900 770.13 889.61 780.519 889.61 780.519 879.221 759.74 879.221 759.74 900"/>
        <rect x="385.714" y="858.442" width="20.779" height="10.39"/>
        <rect x="344.156" y="858.442" width="10.39" height="10.39"/>
        <rect x="323.377" y="858.442" width="10.39" height="10.39"/>
        <rect x="209.091" y="848.052" width="10.39" height="10.39"/>
        <rect x="219.481" y="837.662" width="10.39" height="10.39"/>
        <rect x="136.364" y="848.052" width="10.39" height="10.39"/>
        <rect x="219.481" y="858.442" width="10.39" height="10.39"/>
        <rect x="302.597" y="837.662" width="20.779" height="20.779"/>
        <rect x="364.935" y="858.442" width="10.39" height="10.39"/>
        <polygon points="333.766 837.662 333.766 858.442 344.156 858.442 344.156 848.052 354.545 848.052 354.545 858.442 364.935 858.442 364.935 837.662 333.766 837.662"/>
        <rect x="261.039" y="858.442" width="20.779" height="10.39"/>
        <path d="M894.805,557.143v-10.39h-10.39v-83.117h-10.39v-10.39h10.39v-20.779h-10.39v-10.39h10.39v-20.779h-10.39v-10.39h10.39v-10.39h-10.39v-10.39h10.39v-10.39h-10.39v-10.39h10.39v-20.779h-10.39v-51.948h-10.39v-10.39h-10.39v-10.39h-10.39v-31.169h-10.39v-10.39h-10.39v-20.779h-20.779v-31.169h-10.39v-20.779h-10.39v-10.39h-10.39v10.39h-10.39v-10.39h10.39v-20.779h-10.39v-10.39h-31.169v10.39h-62.338v10.39h-31.169v-10.39h-10.39v10.39h-10.39v10.39h-10.39v-10.39h-10.39v10.39h-10.39v-10.39h-10.39v10.39h-31.169v10.39h-10.39v-10.39h-10.39v10.39h-41.558v10.39h-10.39v-10.39h-10.39v10.39h-20.779v10.39h-10.39v-10.39h-20.779v10.39h-62.338v10.39h-10.39v-10.39h-10.39v10.39h-51.948v10.39h-10.39v10.39h-10.39v-10.39h-41.558v10.39h-10.39v-10.39h-10.39v20.779h-10.39v-10.39h-31.169v10.39h-20.779v93.506h-10.39v10.39h31.169v-10.39h10.39v10.39h10.39v-10.39h10.39v10.39h10.39v-10.39h31.169v10.39h10.39v-10.39h62.338v-10.39h-10.39v-10.39h10.39v10.39h31.169v10.39h-10.39v10.39h-10.39v10.39h-10.39v-10.39h-41.558v10.39h-10.39v-10.39h-10.39v10.39h-10.39v-10.39h-10.39v10.39h-83.117v10.39h-10.39v10.39h10.39v31.169h-10.39v31.169h10.39v10.39h-10.39v124.675h10.39v10.39h-10.39v20.779h-10.39v10.39h10.39v72.727h-10.39v10.39h10.39v10.39h-10.39v10.39h10.39v10.39h-10.39v10.39h10.39v10.39h-10.39v20.779h10.39v10.39h-10.39v72.727h41.558v-10.39h20.779v10.39h20.779v10.39h10.39v-20.779h-10.39v-10.39h10.39v10.39h10.39v10.39h41.558v20.779h10.39v-20.779h31.169v10.39h10.39v-10.39h10.39v10.39h20.779v-10.39h31.169v20.779h10.39v-10.39h20.779v-10.39h10.39v20.779h10.39v-10.39h10.39v-10.39h10.39v10.39h20.779v-10.39h10.39v10.39h31.169v-10.39h10.39v41.558h20.779v-10.39h-10.39v-20.779h20.779v-10.39h10.39v20.779h10.39v-10.39h10.39v-10.39h10.39v10.39h10.39v10.39h10.39v-10.39h20.779v10.39h10.39v-10.39h20.779v10.39h10.39v-10.39h10.39v10.39h10.39v10.39h10.39v-20.779h10.39v10.39h20.779v-10.39h10.39v10.39h10.39v-10.39h10.39v10.39h10.39v10.39h10.39v-20.779h10.39v-10.39h-10.39v-20.779h20.779v10.39h-10.39v10.39h41.558v-10.39h-20.779v-10.39h20.779v-10.39h-10.39v-10.39h10.39v10.39h10.39v10.39h20.779v10.39h10.39v-10.39h10.39v-10.39h-20.779v-20.779h-10.39v10.39h-10.39v-10.39h10.39v-10.39h10.39v10.39h10.39v10.39h10.39v10.39h10.39v-20.779h-10.39v-20.779h-10.39v-10.39h10.39v10.39h10.39v-20.779h-10.39v-10.39h10.39v-10.39h-10.39v-10.39h10.39v-10.39h-10.39v-10.39h10.39v-10.39h-10.39v-10.39h10.39v-20.779h-10.39v-72.727h10.39ZM146.753,255.844h-10.39v-10.39h10.39v10.39ZM157.143,224.675h-10.39v-10.39h10.39v10.39ZM177.922,276.623h-10.39v-20.779h10.39v20.779ZM209.091,235.065v-10.39h10.39v-10.39h10.39v10.39h-10.39v10.39h-10.39ZM240.26,266.234h-10.39v-10.39h-10.39v-10.39h10.39v10.39h10.39v10.39ZM261.039,245.455h-10.39v-10.39h10.39v10.39ZM261.039,214.286h-10.39v-10.39h10.39v10.39ZM281.818,255.844h-10.39v-10.39h10.39v10.39ZM863.636,318.182v20.779h-10.39v-20.779h10.39ZM863.636,557.143v10.39h-10.39v-10.39h-10.39v-10.39h10.39v-10.39h10.39v10.39h-10.39v10.39h10.39ZM863.636,650.649v10.39h-10.39v-10.39h-10.39v-10.39h10.39v-10.39h10.39v10.39h-10.39v10.39h10.39ZM801.299,650.649v-10.39h10.39v10.39h-10.39ZM811.688,692.208v10.39h-10.39v-10.39h10.39ZM770.13,557.143v-10.39h-10.39v-10.39h10.39v10.39h10.39v10.39h10.39v10.39h-10.39v-10.39h-10.39ZM770.13,640.26h10.39v10.39h-10.39v-10.39ZM759.74,588.312v-10.39h10.39v10.39h-10.39ZM770.13,609.091v-10.39h10.39v10.39h-10.39ZM770.13,266.234v-10.39h10.39v10.39h-10.39v10.39h10.39v10.39h-10.39v-10.39h-10.39v-10.39h10.39ZM759.74,245.455v-10.39h10.39v10.39h-10.39ZM770.13,214.286v-10.39h10.39v10.39h-10.39ZM822.078,359.74v10.39h-10.39v-10.39h-10.39v-10.39h10.39v10.39h10.39ZM842.857,401.299v10.39h-10.39v-10.39h-10.39v-10.39h-10.39v-10.39h10.39v10.39h10.39v10.39h10.39ZM832.468,380.519v-10.39h10.39v10.39h-10.39ZM822.078,442.857v-20.779h10.39v20.779h-10.39ZM832.468,463.636v20.779h-10.39v-20.779h10.39ZM811.688,453.247v10.39h-10.39v-10.39h10.39ZM801.299,442.857v-10.39h10.39v10.39h-10.39ZM811.688,525.974v10.39h-10.39v-10.39h10.39ZM811.688,588.312h10.39v10.39h-10.39v-10.39ZM811.688,557.143v-10.39h10.39v10.39h-10.39ZM811.688,515.584v-10.39h10.39v10.39h-10.39ZM811.688,401.299v10.39h-10.39v-10.39h10.39ZM801.299,390.909h-10.39v-10.39h10.39v10.39ZM801.299,505.195v10.39h-10.39v-10.39h10.39ZM790.909,484.416h-10.39v-10.39h10.39v10.39ZM770.13,453.247v-10.39h10.39v10.39h-10.39ZM780.519,359.74v10.39h-10.39v-10.39h10.39ZM770.13,338.961v-10.39h10.39v10.39h-10.39ZM770.13,307.792v-10.39h10.39v10.39h-10.39v10.39h-10.39v-10.39h10.39ZM770.13,380.519v10.39h10.39v10.39h-10.39v-10.39h-10.39v-10.39h10.39ZM770.13,411.688v10.39h-10.39v-10.39h10.39ZM770.13,463.636v10.39h-10.39v-10.39h10.39ZM790.909,588.312h10.39v10.39h-10.39v-10.39ZM801.299,629.87v-10.39h10.39v-10.39h10.39v10.39h-10.39v10.39h-10.39ZM822.078,681.818h10.39v-10.39h10.39v10.39h-10.39v10.39h-10.39v-10.39ZM832.468,525.974v-10.39h10.39v10.39h-10.39ZM842.857,577.922h10.39v10.39h-10.39v-10.39ZM853.247,619.481v-10.39h-10.39v-10.39h10.39v10.39h10.39v10.39h-10.39ZM842.857,494.805v-10.39h10.39v-10.39h-10.39v-10.39h10.39v10.39h10.39v10.39h-10.39v10.39h-10.39ZM853.247,453.247v-10.39h-10.39v-10.39h10.39v10.39h10.39v10.39h-10.39ZM853.247,411.688v-10.39h10.39v10.39h-10.39ZM853.247,380.519v-20.779h-10.39v-10.39h-20.779v-10.39h20.779v10.39h10.39v10.39h10.39v20.779h-10.39ZM822.078,328.571v-10.39h20.779v10.39h-20.779ZM822.078,235.065h10.39v20.779h-10.39v-20.779ZM801.299,214.286h10.39v10.39h-10.39v-10.39ZM801.299,245.455h10.39v10.39h-10.39v-10.39ZM801.299,287.013v-10.39h10.39v10.39h10.39v10.39h10.39v-20.779h10.39v20.779h10.39v10.39h-10.39v-10.39h-10.39v10.39h-10.39v-10.39h-10.39v20.779h-20.779v-20.779h20.779v-10.39h-10.39ZM790.909,224.675v10.39h-10.39v-10.39h10.39ZM759.74,151.948h20.779v10.39h-20.779v-10.39ZM759.74,183.117h10.39v10.39h-10.39v-10.39ZM749.351,203.896h10.39v10.39h-10.39v-10.39ZM738.961,629.87h10.39v10.39h-10.39v-10.39ZM728.571,609.091v-10.39h10.39v10.39h-10.39ZM738.961,494.805v10.39h-10.39v-10.39h10.39v-10.39h10.39v10.39h-10.39ZM738.961,432.468v-10.39h10.39v10.39h-10.39ZM738.961,307.792v-10.39h10.39v10.39h-10.39ZM728.571,141.558h10.39v10.39h-10.39v-10.39ZM728.571,162.338h10.39v10.39h-10.39v-10.39ZM728.571,245.455h10.39v10.39h-10.39v-10.39ZM728.571,338.961h10.39v10.39h-10.39v-10.39ZM728.571,422.078h-10.39v-10.39h10.39v10.39ZM697.403,505.195v10.39h-10.39v-10.39h10.39ZM687.013,266.234h-10.39v-10.39h10.39v10.39ZM697.403,536.364v10.39h-10.39v-10.39h10.39ZM697.403,598.701v10.39h-10.39v-10.39h10.39ZM697.403,671.429v10.39h-10.39v-10.39h10.39ZM697.403,712.987h10.39v20.779h-10.39v-20.779ZM697.403,661.039v-10.39h10.39v10.39h-10.39ZM697.403,567.532v-10.39h10.39v10.39h-10.39ZM697.403,370.13v-10.39h10.39v10.39h-10.39ZM707.792,266.234v10.39h-10.39v-10.39h10.39ZM697.403,255.844v-10.39h10.39v10.39h-10.39ZM707.792,442.857h10.39v10.39h-10.39v-10.39ZM707.792,349.351v-10.39h10.39v10.39h-10.39ZM718.182,235.065h-10.39v-10.39h10.39v10.39ZM697.403,162.338h10.39v10.39h-10.39v-10.39ZM697.403,193.506h10.39v10.39h-10.39v-10.39ZM697.403,235.065h-10.39v-10.39h10.39v10.39ZM676.623,151.948h10.39v10.39h-10.39v-10.39ZM666.234,183.117h10.39v10.39h-10.39v-10.39ZM666.234,203.896h10.39v10.39h-10.39v-10.39ZM666.234,318.182h10.39v10.39h10.39v10.39h-10.39v-10.39h-10.39v-10.39ZM655.844,287.013v10.39h-20.779v-10.39h20.779ZM635.065,266.234v-10.39h20.779v10.39h-20.779ZM655.844,380.519v10.39h-10.39v-10.39h10.39ZM645.455,515.584h10.39v10.39h-10.39v-10.39ZM655.844,588.312h10.39v10.39h-10.39v-10.39ZM655.844,505.195v-10.39h10.39v10.39h-10.39ZM655.844,474.026v-10.39h10.39v10.39h-10.39ZM645.455,172.727h10.39v10.39h-10.39v-10.39ZM645.455,193.506v10.39h-10.39v-10.39h10.39ZM624.675,141.558h10.39v10.39h-10.39v-10.39ZM624.675,411.688v-10.39h10.39v10.39h-10.39ZM635.065,432.468v10.39h-10.39v-10.39h10.39ZM624.675,359.74v-10.39h10.39v10.39h-10.39ZM624.675,338.961v-10.39h10.39v10.39h-10.39ZM614.286,162.338h10.39v10.39h-10.39v-10.39ZM614.286,224.675h10.39v10.39h-10.39v-10.39ZM614.286,640.26v-10.39h10.39v10.39h-10.39ZM624.675,661.039v10.39h-10.39v-10.39h10.39ZM614.286,577.922v-10.39h10.39v10.39h-10.39ZM614.286,515.584v-10.39h10.39v10.39h-10.39ZM614.286,266.234v10.39h-10.39v10.39h-10.39v-10.39h10.39v-10.39h10.39ZM572.727,380.519v-10.39h10.39v10.39h10.39v10.39h-10.39v-10.39h-10.39ZM593.506,422.078h10.39v10.39h-10.39v-10.39ZM593.506,328.571v-10.39h10.39v10.39h-10.39ZM593.506,162.338h10.39v10.39h-10.39v-10.39ZM593.506,214.286h10.39v10.39h-10.39v-10.39ZM593.506,255.844v10.39h-10.39v-10.39h10.39ZM572.727,141.558h10.39v10.39h-10.39v-10.39ZM572.727,183.117h10.39v10.39h-10.39v-10.39ZM572.727,235.065h10.39v10.39h-10.39v-10.39ZM562.338,266.234h10.39v10.39h-10.39v-10.39ZM531.169,546.753v-10.39h10.39v10.39h-10.39ZM541.558,619.481v10.39h-10.39v-10.39h10.39ZM531.169,515.584v-10.39h10.39v10.39h-10.39ZM531.169,442.857v-10.39h10.39v10.39h-10.39ZM531.169,411.688v-10.39h10.39v10.39h-10.39ZM531.169,390.909v-10.39h10.39v10.39h-10.39ZM531.169,276.623v-10.39h10.39v10.39h-10.39ZM541.558,338.961h10.39v10.39h-10.39v-10.39ZM541.558,255.844v-10.39h10.39v10.39h-10.39ZM551.948,557.143h10.39v10.39h-10.39v-10.39ZM551.948,318.182v-10.39h10.39v10.39h-10.39ZM551.948,193.506v10.39h-10.39v-10.39h10.39ZM531.169,162.338h10.39v10.39h-10.39v-10.39ZM520.779,193.506h10.39v10.39h-10.39v-10.39ZM520.779,245.455h10.39v10.39h-10.39v-10.39ZM500,235.065v-10.39h10.39v10.39h-10.39ZM510.39,266.234v10.39h-10.39v-10.39h10.39ZM500,214.286v-10.39h10.39v10.39h-10.39ZM489.61,162.338h10.39v10.39h-10.39v-10.39ZM468.831,567.532v-10.39h10.39v10.39h-10.39ZM479.221,650.649v20.779h-10.39v-20.779h10.39ZM437.662,422.078v-10.39h10.39v10.39h-10.39ZM448.052,598.701v10.39h-10.39v-10.39h10.39ZM448.052,380.519v10.39h-10.39v-10.39h10.39ZM437.662,328.571v-10.39h10.39v10.39h-10.39ZM448.052,474.026h10.39v-10.39h10.39v10.39h-10.39v10.39h-10.39v-10.39ZM468.831,380.519v-10.39h10.39v10.39h-10.39ZM479.221,588.312h10.39v10.39h-10.39v-10.39ZM479.221,474.026v-10.39h10.39v10.39h-10.39ZM479.221,318.182v-10.39h10.39v10.39h-10.39ZM489.61,505.195h10.39v10.39h-10.39v-10.39ZM500,546.753h10.39v10.39h-10.39v-10.39ZM500,453.247h-10.39v-10.39h10.39v10.39ZM489.61,349.351v-10.39h10.39v10.39h-10.39ZM489.61,297.403v-10.39h10.39v10.39h-10.39ZM479.221,255.844v10.39h10.39v10.39h-10.39v10.39h-10.39v-10.39h10.39v-10.39h-10.39v-10.39h10.39ZM458.442,183.117h10.39v10.39h-10.39v-10.39ZM448.052,224.675h10.39v-10.39h10.39v10.39h-10.39v10.39h-10.39v-10.39ZM416.883,203.896h10.39v10.39h-10.39v-10.39ZM406.494,245.455h10.39v10.39h-10.39v-10.39ZM406.494,276.623h10.39v10.39h10.39v-10.39h10.39v-10.39h10.39v10.39h-10.39v10.39h-10.39v10.39h-10.39v-10.39h-10.39v-10.39ZM427.273,442.857v10.39h-10.39v-10.39h10.39ZM416.883,401.299v-10.39h10.39v10.39h-10.39ZM427.273,474.026v10.39h-10.39v-10.39h10.39ZM427.273,661.039h10.39v10.39h-10.39v-10.39ZM406.494,328.571h10.39v10.39h-10.39v-10.39ZM406.494,349.351h10.39v10.39h-10.39v-10.39ZM406.494,629.87v-10.39h10.39v10.39h-10.39ZM416.883,712.987v10.39h-10.39v-10.39h10.39ZM406.494,525.974v-10.39h10.39v10.39h-10.39ZM406.494,442.857h-10.39v-10.39h10.39v10.39ZM364.935,484.416v-10.39h10.39v10.39h-10.39ZM375.325,609.091v10.39h-10.39v-10.39h10.39ZM364.935,422.078v-10.39h10.39v10.39h-10.39ZM375.325,515.584h10.39v10.39h-10.39v-10.39ZM375.325,349.351v-10.39h10.39v10.39h-10.39ZM385.714,546.753h10.39v20.779h-10.39v-20.779ZM385.714,474.026v-10.39h10.39v10.39h-10.39ZM385.714,370.13v-10.39h10.39v10.39h-10.39ZM396.104,245.455h-10.39v-10.39h10.39v10.39ZM375.325,193.506h10.39v10.39h-10.39v-10.39ZM375.325,214.286h10.39v10.39h-10.39v-10.39ZM375.325,276.623h10.39v10.39h-10.39v10.39h-10.39v-10.39h10.39v-10.39ZM364.935,276.623h-10.39v-10.39h10.39v10.39ZM344.156,214.286h10.39v10.39h-10.39v-10.39ZM344.156,235.065h10.39v10.39h-10.39v-10.39ZM344.156,287.013h10.39v10.39h-10.39v-10.39ZM344.156,307.792h10.39v10.39h-10.39v-10.39ZM333.766,370.13h10.39v10.39h-10.39v-10.39ZM333.766,401.299h10.39v10.39h-10.39v-10.39ZM312.987,183.117h10.39v10.39h-10.39v-10.39ZM292.208,193.506h10.39v10.39h-10.39v-10.39ZM302.597,224.675h10.39v-10.39h10.39v10.39h-10.39v10.39h-10.39v-10.39ZM323.377,245.455v10.39h-10.39v-10.39h10.39ZM312.987,276.623v-10.39h10.39v10.39h-10.39ZM333.766,442.857v-10.39h10.39v10.39h-10.39v10.39h-10.39v-10.39h10.39ZM333.766,484.416v-10.39h10.39v10.39h-10.39ZM344.156,577.922v10.39h-10.39v-10.39h10.39ZM312.987,328.571h10.39v10.39h-10.39v-10.39ZM312.987,370.13h10.39v10.39h-10.39v-10.39ZM302.597,671.429v-10.39h10.39v10.39h-10.39ZM312.987,692.208v10.39h-10.39v-10.39h10.39ZM302.597,577.922v-10.39h10.39v10.39h-10.39ZM312.987,609.091h10.39v10.39h-10.39v-10.39ZM312.987,546.753v-20.779h10.39v20.779h-10.39ZM312.987,484.416v20.779h-10.39v-20.779h10.39ZM271.429,349.351h10.39v10.39h-10.39v-10.39ZM271.429,442.857h10.39v10.39h-10.39v-10.39ZM271.429,546.753h10.39v10.39h-10.39v-10.39ZM250.649,515.584v-10.39h10.39v10.39h-10.39ZM261.039,536.364v10.39h-10.39v-10.39h10.39ZM250.649,453.247h-10.39v-10.39h10.39v10.39ZM261.039,588.312v10.39h-20.779v-10.39h20.779ZM261.039,650.649h10.39v10.39h-10.39v-10.39ZM240.26,349.351h10.39v-10.39h10.39v10.39h-10.39v10.39h-10.39v-10.39ZM229.87,380.519h10.39v10.39h-10.39v-10.39ZM229.87,422.078h10.39v10.39h-10.39v-10.39ZM219.481,474.026v-10.39h10.39v10.39h-10.39v10.39h-20.779v-10.39h20.779ZM219.481,567.532v10.39h-10.39v-10.39h10.39ZM209.091,598.701v10.39h-10.39v-10.39h10.39ZM198.701,422.078v-10.39h10.39v10.39h-10.39ZM198.701,349.351h10.39v10.39h-10.39v-10.39ZM188.312,390.909h10.39v10.39h-10.39v-10.39ZM188.312,515.584h10.39v10.39h-10.39v-10.39ZM188.312,557.143h10.39v10.39h-10.39v-10.39ZM167.532,359.74h10.39v10.39h-10.39v-10.39ZM167.532,442.857h10.39v10.39h-10.39v-10.39ZM167.532,588.312h10.39v10.39h-10.39v-10.39ZM157.143,546.753v-10.39h10.39v10.39h-10.39ZM167.532,515.584h-10.39v-10.39h10.39v10.39ZM157.143,411.688h-10.39v-10.39h10.39v10.39ZM157.143,619.481v10.39h-10.39v-10.39h10.39ZM136.364,380.519h10.39v10.39h-10.39v-10.39ZM136.364,796.104h-10.39v-10.39h10.39v10.39ZM136.364,754.545h-10.39v-10.39h10.39v10.39ZM136.364,712.987h-10.39v-10.39h10.39v10.39ZM136.364,661.039h-10.39v-10.39h10.39v10.39ZM136.364,442.857v-10.39h10.39v10.39h-10.39ZM157.143,744.156h-10.39v-10.39h10.39v10.39ZM157.143,712.987v-10.39h10.39v10.39h-10.39ZM177.922,785.714h-10.39v-10.39h10.39v10.39ZM177.922,681.818v-10.39h10.39v10.39h-10.39ZM188.312,723.377v-10.39h10.39v10.39h-10.39ZM219.481,764.935h-20.779v-10.39h20.779v10.39ZM219.481,671.429h-10.39v-10.39h10.39v10.39ZM219.481,640.26h10.39v10.39h-10.39v-10.39ZM240.26,785.714h-10.39v-10.39h10.39v10.39ZM240.26,733.766h-10.39v-10.39h10.39v10.39ZM240.26,640.26v-10.39h10.39v10.39h-10.39ZM261.039,733.766h-10.39v-10.39h10.39v10.39ZM261.039,702.597h10.39v10.39h-10.39v-10.39ZM281.818,806.494h-10.39v-10.39h10.39v10.39ZM292.208,629.87h-10.39v-10.39h10.39v10.39ZM292.208,401.299v10.39h-10.39v-10.39h10.39v-10.39h10.39v10.39h-10.39ZM323.377,785.714h-20.779v-10.39h20.779v10.39ZM323.377,764.935h-20.779v-10.39h20.779v10.39ZM333.766,712.987h-10.39v-10.39h10.39v10.39ZM344.156,681.818h-10.39v-10.39h10.39v10.39ZM344.156,640.26h10.39v-10.39h10.39v10.39h-10.39v10.39h-10.39v-10.39ZM364.935,692.208v10.39h-10.39v-10.39h10.39ZM364.935,806.494h-10.39v-10.39h10.39v10.39ZM364.935,733.766v-10.39h20.779v10.39h-20.779ZM396.104,785.714h-10.39v-10.39h10.39v10.39ZM396.104,661.039h-10.39v-10.39h10.39v10.39ZM396.104,598.701v-10.39h10.39v10.39h-10.39ZM406.494,764.935v-10.39h20.779v10.39h-20.779ZM437.662,806.494h-10.39v-10.39h10.39v10.39ZM437.662,692.208h10.39v10.39h-10.39v-10.39ZM458.442,796.104h-10.39v-10.39h10.39v10.39ZM458.442,577.922h-10.39v-10.39h10.39v10.39ZM458.442,525.974v-10.39h10.39v10.39h-10.39ZM489.61,754.545h-10.39v-10.39h-10.39v-10.39h20.779v20.779ZM500,629.87h-10.39v-10.39h10.39v10.39ZM500,588.312v-10.39h10.39v10.39h-10.39ZM520.779,806.494h-10.39v-10.39h10.39v10.39ZM520.779,702.597h-10.39v-10.39h10.39v10.39ZM520.779,671.429h-10.39v-10.39h10.39v10.39ZM520.779,401.299h-10.39v-10.39h-10.39v-10.39h10.39v10.39h10.39v10.39ZM520.779,297.403h10.39v10.39h-10.39v-10.39ZM541.558,806.494h-10.39v-10.39h10.39v10.39ZM551.948,764.935h-10.39v-10.39h10.39v10.39ZM551.948,702.597v-10.39h10.39v10.39h-10.39ZM572.727,754.545h-10.39v-10.39h10.39v10.39ZM572.727,733.766h-10.39v-10.39h10.39v10.39ZM572.727,661.039h-10.39v10.39h-10.39v-10.39h10.39v-10.39h10.39v10.39ZM572.727,609.091h-10.39v-10.39h10.39v10.39ZM572.727,588.312h-10.39v-10.39h10.39v10.39ZM572.727,484.416v-20.779h20.779v10.39h10.39v10.39h-10.39v-10.39h-10.39v10.39h-10.39ZM593.506,525.974v10.39h-10.39v-10.39h10.39ZM583.117,692.208v-10.39h10.39v10.39h-10.39ZM603.896,806.494h-10.39v-10.39h10.39v10.39ZM603.896,588.312h10.39v10.39h-10.39v-10.39ZM624.675,796.104h-10.39v-10.39h10.39v10.39ZM624.675,764.935h-10.39v-10.39h10.39v10.39ZM635.065,723.377h-20.779v-10.39h20.779v10.39ZM635.065,536.364h10.39v10.39h-10.39v-10.39ZM655.844,816.883h-10.39v-20.779h10.39v20.779ZM655.844,692.208h-10.39v-10.39h10.39v10.39ZM655.844,671.429h-10.39v-10.39h10.39v10.39ZM655.844,629.87v-10.39h10.39v10.39h-10.39ZM676.623,744.156h-10.39v-10.39h10.39v10.39ZM676.623,422.078v-20.779h10.39v20.779h-10.39ZM697.403,816.883h-10.39v-10.39h10.39v10.39ZM718.182,775.325h-20.779v-10.39h20.779v10.39ZM718.182,567.532v-10.39h10.39v10.39h-10.39ZM728.571,712.987v-10.39h10.39v10.39h-10.39ZM749.351,806.494h-10.39v-10.39h10.39v10.39ZM749.351,681.818v-10.39h10.39v10.39h-10.39ZM770.13,754.545h-10.39v-10.39h10.39v10.39ZM770.13,712.987v-10.39h10.39v10.39h-10.39ZM790.909,775.325h-10.39v-10.39h10.39v10.39ZM790.909,754.545h-10.39v-10.39h10.39v10.39ZM790.909,681.818v-10.39h10.39v10.39h-10.39ZM811.688,785.714h-10.39v-10.39h10.39v10.39ZM822.078,744.156h-10.39v10.39h10.39v10.39h-10.39v-10.39h-10.39v-20.779h20.779v10.39ZM822.078,723.377v-10.39h10.39v10.39h-10.39ZM842.857,754.545h-10.39v-20.779h10.39v20.779ZM863.636,744.156h-10.39v-10.39h10.39v10.39ZM863.636,723.377h-10.39v-10.39h-10.39v-10.39h10.39v10.39h10.39v10.39ZM874.026,681.818h-10.39v10.39h-10.39v-10.39h10.39v-10.39h10.39v10.39ZM874.026,525.974h-10.39v-10.39h-10.39v-10.39h10.39v10.39h10.39v10.39Z"/>
        <rect x="510.39" y="868.831" width="20.779" height="10.39"/>
        <rect x="458.442" y="868.831" width="10.39" height="10.39"/>
        <rect x="427.273" y="868.831" width="10.39" height="10.39"/>
        <rect x="157.143" y="816.883" width="10.39" height="10.39"/>
        <polygon points="115.584 837.662 105.195 837.662 105.195 858.442 125.974 858.442 125.974 848.052 115.584 848.052 115.584 837.662"/>
        <rect x="115.584" y="827.273" width="10.39" height="10.39"/>
        <rect x="136.364" y="827.273" width="10.39" height="10.39"/>
        <rect x="655.844" y="879.221" width="10.39" height="10.39"/>
        <rect x="125.974" y="837.662" width="10.39" height="10.39"/>
        <rect x="624.675" y="848.052" width="10.39" height="10.39"/>
        <rect x="666.234" y="858.442" width="10.39" height="10.39"/>
        <polygon points="687.013 858.442 687.013 868.831 676.623 868.831 676.623 879.221 697.403 879.221 697.403 858.442 687.013 858.442"/>
        <rect x="749.351" y="868.831" width="10.39" height="10.39"/>
        <rect x="728.571" y="868.831" width="10.39" height="10.39"/>
        <rect x="655.844" y="848.052" width="10.39" height="10.39"/>
        <rect x="229.87" y="827.273" width="10.39" height="10.39"/>
        <rect x="583.117" y="837.662" width="10.39" height="20.779"/>
        <rect x="572.727" y="827.273" width="10.39" height="10.39"/>
        <rect x="562.338" y="848.052" width="10.39" height="10.39"/>
        <polygon points="583.117 858.442 572.727 858.442 572.727 868.831 562.338 868.831 562.338 858.442 551.948 858.442 551.948 879.221 593.506 879.221 593.506 868.831 583.117 868.831 583.117 858.442"/>
        <polygon points="635.065 868.831 603.896 868.831 603.896 879.221 655.844 879.221 655.844 858.442 635.065 858.442 635.065 868.831"/>
        <rect x="593.506" y="858.442" width="10.39" height="10.39"/>
        <rect x="842.857" y="837.662" width="20.779" height="10.39"/>
        <rect x="853.247" y="816.883" width="10.39" height="10.39"/>
        <rect x="842.857" y="806.494" width="10.39" height="10.39"/>
        <rect x="832.468" y="796.104" width="10.39" height="10.39"/>
        <rect x="832.468" y="827.273" width="10.39" height="10.39"/>
        <rect x="822.078" y="837.662" width="10.39" height="10.39"/>
        <polygon points="790.909 848.052 780.519 848.052 780.519 879.221 801.299 879.221 801.299 858.442 790.909 858.442 790.909 848.052"/>
        <rect x="801.299" y="827.273" width="20.779" height="10.39"/>
        <rect x="790.909" y="837.662" width="10.39" height="10.39"/>
        <polygon points="801.299 858.442 811.688 858.442 811.688 868.831 822.078 868.831 822.078 848.052 801.299 848.052 801.299 858.442"/>
        <rect x="707.792" y="858.442" width="10.39" height="20.779"/>
        <rect x="437.662" y="858.442" width="10.39" height="10.39"/>
        <polygon points="468.831 858.442 468.831 868.831 479.221 868.831 479.221 879.221 489.61 879.221 489.61 868.831 510.39 868.831 510.39 858.442 468.831 858.442"/>
        <rect x="416.883" y="858.442" width="10.39" height="10.39"/>
        <rect x="489.61" y="837.662" width="10.39" height="10.39"/>
        <polygon points="479.221 848.052 479.221 837.662 458.442 837.662 458.442 848.052 448.052 848.052 448.052 858.442 468.831 858.442 468.831 848.052 479.221 848.052"/>
        <polygon points="437.662 848.052 448.052 848.052 448.052 837.662 427.273 837.662 427.273 858.442 437.662 858.442 437.662 848.052"/>
        <polygon points="281.818 848.052 281.818 858.442 292.208 858.442 292.208 837.662 261.039 837.662 261.039 848.052 281.818 848.052"/>
        <rect x="406.494" y="848.052" width="10.39" height="10.39"/>
        <polygon points="250.649 848.052 250.649 837.662 240.26 837.662 240.26 858.442 261.039 858.442 261.039 848.052 250.649 848.052"/>
        <rect x="375.325" y="848.052" width="10.39" height="10.39"/>
        <rect x="385.714" y="837.662" width="20.779" height="10.39"/>
        <rect x="718.182" y="848.052" width="20.779" height="10.39"/>
        <rect x="697.403" y="848.052" width="10.39" height="10.39"/>
        <rect x="676.623" y="848.052" width="10.39" height="10.39"/>
        <rect x="635.065" y="837.662" width="20.779" height="10.39"/>
        <rect x="666.234" y="837.662" width="10.39" height="10.39"/>
        <rect x="749.351" y="837.662" width="10.39" height="20.779"/>
        <rect x="759.74" y="858.442" width="10.39" height="10.39"/>
        <rect x="531.169" y="858.442" width="10.39" height="10.39"/>
        <polygon points="531.169 837.662 531.169 848.052 541.558 848.052 541.558 858.442 551.948 858.442 551.948 837.662 531.169 837.662"/>
        <rect x="738.961" y="858.442" width="10.39" height="10.39"/>
        <rect x="603.896" y="837.662" width="10.39" height="20.779"/>
      </g>
    </g>
  </g>
</svg>