<?xml version="1.0" encoding="utf-8"?>
<!-- Generator: Adobe Illustrator 29.4.0, SVG Export Plug-In . SVG Version: 9.03 Build 0)  -->
<svg version="1.1" id="Layer_1" xmlns="http://www.w3.org/2000/svg" xmlns:xlink="http://www.w3.org/1999/xlink" x="0px" y="0px"
	 width="150px" height="150px" viewBox="0 0 150 150" enable-background="new 0 0 150 150" xml:space="preserve">
<g>
	<path fill="#5F9CD6" d="M71.171,22.727h1.196v1.196h2.391v2.391h2.391v2.391h1.196v1.196h1.196v1.196h1.196v1.196h2.391v1.196
		h1.196v1.196h1.196v1.196h2.391v1.196h1.196v1.196h1.196v1.196h2.391v1.196h2.391v1.196h2.391v1.196h2.391v1.196h1.196v1.196h2.391
		v1.196h1.196v1.196h2.391v1.196h1.196v1.196h2.391v1.196h2.391v1.196h1.196v1.196h3.587v1.196h3.587v1.196h1.196V55.01h1.196v1.196
		h1.196V55.01h1.196v1.196h1.196V55.01h1.196v1.196h2.391v3.587h-1.196v1.196h-1.196v2.391h-1.196v2.391h-1.196v3.587h-1.196v2.391
		h-1.196v3.587h-1.196v4.783h-1.196v1.196h1.196v1.196h-1.196v3.587h-1.196v3.587h-1.196v3.587h-2.391v1.196h2.391v1.196h-1.196
		v1.196h1.196v1.196h-1.196v2.391h-1.196v3.587h-1.196v10.761h1.196v1.196h-1.196v1.196h1.196v2.391h1.196v2.391h-1.196v1.196
		h-3.587v-1.196h-1.196v1.196h-1.196v-1.196h-1.196v-2.391h-1.196v2.391h-9.565v-1.196h-1.196v1.196H96.28v-1.196h-1.196v1.196
		H83.127v1.196h-1.196v-1.196h-1.196v1.196h-7.174v1.196h-1.196v-1.196h-1.196v1.196h-4.783v-1.196h-1.196v1.196h-1.196v-2.391
		h-1.196v2.391H60.41v1.196h-2.391v1.196h-1.196v1.196h-2.391v1.196h-1.196v1.196h-3.587v-1.196h-1.196v-7.174h-1.196v-1.196h1.196
		v-1.196h-1.196v-3.587h-1.196v-3.587h-1.196v-3.587h-1.196v-2.391h-1.196v-3.587H41.28v-2.391h-1.196v-2.391h-1.196v-2.391h-1.196
		v-3.587h-1.196v-2.391h-1.196v-1.196h-1.196v-1.196h1.196v-1.196h-1.196v-2.391H32.91v-2.391h-1.196v-2.391h-1.196v-1.196h-1.196
		v-1.196h-1.196v-1.196h-1.196V74.14h-1.196v-1.196H24.54v-1.196h-2.391v-2.391h-1.196v-1.196h1.196v-1.196h2.391v-1.196h1.196
		v1.196h1.196v-2.391h1.196v1.196h1.196v-2.391h1.196v1.196h1.196v-2.391h2.391v-1.196h1.196v-1.196h2.391v-1.196h1.196v-1.196
		h1.196v-1.196h2.391v-2.391h2.391v-1.196h1.196v-1.196h1.196v-1.196h1.196v-1.196h1.196v-1.196h2.391v-2.391h2.391v-1.196h1.196
		v-1.196h1.196v-1.196h2.391v-2.391h2.391v-1.196h1.196v-1.196h1.196v-1.196h1.196v-2.391h1.196v-1.196h1.196v-2.391h1.196v-3.587
		h1.196v-2.391h1.196V22.727z M72.367,25.119v1.196h1.196v-1.196H72.367z M71.171,26.314v2.391h-1.196v2.391H68.78v2.391h-1.196
		v2.391h-1.196v1.196h-1.196v1.196h-1.196v1.196h-1.196v1.196h-1.196v2.391H60.41v-1.196h-1.196v1.196h-1.196v1.196h1.196v1.196
		h-1.196v-1.196h-1.196v1.196h-1.196v1.196h-1.196v2.391h-1.196v-1.196H52.04v2.391h-2.391v1.196h1.196v1.196h-1.196v-1.196h-1.196
		v1.196h-1.196v1.196h-1.196v1.196h-1.196v1.196h-1.196v1.196H41.28v2.391h-2.391v1.196h-1.196v1.196h-2.391v1.196h1.196v1.196
		h-1.196v-1.196h-1.196v1.196h-2.391v2.391h-1.196v-1.196h-1.196v2.391h-1.196v-1.196h-1.196v1.196H24.54v2.391h2.391v1.196h1.196
		v2.391h2.391v2.391h2.391v1.196h-1.196v1.196h2.391v2.391h1.196v2.391h1.196v1.196h-1.196v1.196h2.391v1.196h-1.196v1.196h1.196
		v1.196h1.196v1.196h-1.196v1.196h2.391v1.196h-1.196v1.196h2.391v1.196h-1.196v1.196h1.196v1.196h1.196v2.391h1.196v1.196h-1.196
		v1.196h2.391v1.196h-1.196v1.196h2.391v1.196h-1.196v1.196h2.391v1.196h-1.196v1.196h1.196v2.391h1.196v2.391h1.196v1.196h-1.196
		v1.196h1.196v2.391h1.196v1.196h-1.196v1.196h1.196v1.196h-1.196v1.196h1.196v2.391h1.196v-1.196h1.196v1.196h1.196v-2.391h2.391
		v-1.196h2.391v-1.196h3.587v-1.196h1.196v1.196h1.196v-1.196h11.957v-1.196h1.196v1.196h1.196v-1.196h1.196v1.196h1.196v-1.196
		h5.978v-1.196h1.196v1.196h2.391v-1.196h1.196v1.196h1.196v-1.196h13.152v1.196h1.196v-1.196h1.196v1.196h4.783v-4.783h-1.196
		v-11.957h1.196v-3.587h1.196v-5.978h1.196v-2.391h1.196v-1.196h-1.196v-1.196h1.196v-4.783h1.196v-4.783h1.196V74.14h1.196v-3.587
		h1.196v-3.587h1.196v-2.391h1.196v-2.391h1.196v-2.391h1.196v-2.391h-7.174v-1.196h-1.196v1.196h-1.196v-1.196h-2.391V55.01h-2.391
		v-1.196h-2.391v-1.196h-2.391v-1.196h-1.196v-1.196h-2.391v-1.196h-1.196v-1.196h-2.391V46.64h-1.196v-1.196h-2.391v-1.196h-2.391
		v-2.391h-1.196v1.196h-1.196v-2.391h-1.196v1.196h-1.196v-2.391h-1.196v1.196H87.91v-1.196h-1.196v-1.196h-1.196v-1.196h-1.196
		v-1.196h-2.391v-1.196h-1.196v-1.196H79.54v-1.196h-1.196v-1.196h-2.391v-1.196h-1.196V27.51h-2.391v-1.196H71.171z M75.953,28.705
		v1.196h1.196v-1.196H75.953z M87.91,38.271v1.196h1.196v-1.196H87.91z M127.367,59.792v1.196h1.196v-1.196H127.367z M25.736,71.749
		v1.196h1.196v-1.196H25.736z M96.28,119.575v1.196h1.196v-1.196H96.28z M113.019,120.771v1.196h1.196v-1.196H113.019z
		 M59.214,123.162v1.196h1.196v-1.196H59.214z M56.823,124.358v1.196h1.196v-1.196H56.823z M72.367,35.879h1.196v1.196h-1.196
		V35.879z M75.953,37.075h1.196v1.196h-1.196V37.075z M71.171,38.271h1.196v1.196h-1.196v1.196h-1.196v1.196h2.391v1.196h2.391
		v2.391h2.391v2.391h1.196v4.783h-1.196v-4.783h-1.196V46.64h-1.196v-1.196h-1.196v-1.196h-2.391v-1.196h-3.587v-1.196h1.196v-1.196
		h1.196v-1.196h1.196V38.271z M79.54,39.466h1.196v1.196h1.196v1.196h1.196v-1.196h1.196v1.196h-1.196v1.196h-1.196v-1.196h-1.196
		v-1.196H79.54V39.466z M78.345,41.858h1.196v1.196h1.196v1.196h-2.391V41.858z M78.345,45.445h1.196v1.196h-1.196V45.445z
		 M84.323,46.64h1.196v1.196h-1.196V46.64z M86.714,46.64h1.196v1.196h-1.196V46.64z M63.997,47.836h1.196v1.196h-1.196v1.196
		h-2.391v1.196h-2.391v1.196h-1.196v-1.196h1.196v-1.196h2.391v-1.196h2.391V47.836z M68.78,47.836h1.196v1.196h1.196v1.196h-1.196
		v-1.196H68.78V47.836z M81.932,47.836h1.196v1.196h1.196v1.196h1.196v3.587h-1.196v-3.587h-1.196v-1.196h-1.196V47.836z
		 M74.758,49.032h1.196v1.196h-1.196V49.032z M93.888,50.227h1.196v1.196h-1.196V50.227z M69.975,51.423h2.391v1.196h-2.391V51.423z
		 M96.28,51.423h1.196v1.196H96.28V51.423z M55.627,52.619h1.196v1.196h-1.196V52.619z M86.714,52.619h1.196v1.196h-1.196V52.619z
		 M98.671,52.619h1.196v1.196h-1.196V52.619z M69.975,53.814h2.391v1.196h-2.391V53.814z M53.236,55.01h1.196v1.196h-1.196V55.01z
		 M86.714,55.01h1.196v1.196h2.391v1.196h1.196v1.196h1.196v2.391h1.196v1.196h1.196v1.196h1.196v-1.196h1.196v1.196H96.28v1.196
		h3.587v1.196h1.196v-1.196h2.391v-1.196h1.196v1.196h-1.196v1.196h1.196v1.196h-1.196v-1.196h-2.391v1.196h-1.196v-1.196H96.28
		v-1.196h-1.196v-1.196h-1.196v-1.196h-1.196v-1.196h-1.196v-2.391h-1.196v1.196h-1.196v-1.196h1.196v-1.196H87.91v-1.196h-1.196
		V55.01z M67.584,56.205h3.587v1.196h-3.587V56.205z M79.54,56.205h1.196v1.196H79.54v2.391h-1.196v-2.391h1.196V56.205z
		 M103.453,57.401h1.196v1.196h-1.196V57.401z M50.845,58.597h1.196v1.196h-1.196V58.597z M65.193,58.597h1.196v1.196h-1.196v1.196
		h1.196v1.196h1.196v-1.196h1.196v1.196h1.196v1.196H68.78v-1.196h-1.196v1.196h-1.196v-1.196h-1.196v-1.196h-2.391v1.196h1.196
		v1.196h-1.196v-1.196H60.41v1.196h-2.391v1.196h-3.587v1.196h-1.196v1.196H52.04v-2.391h2.391v-1.196h3.587v-1.196h2.391v-1.196
		h2.391v-1.196h2.391V58.597z M67.584,58.597h1.196v1.196h-1.196V58.597z M83.127,58.597h2.391v1.196h-2.391V58.597z
		 M110.627,58.597h1.196v1.196h1.196v3.587h-1.196v1.196h1.196v1.196h-1.196v2.391h-1.196v2.391h-1.196v-2.391h-1.196v2.391h-1.196
		v1.196h-1.196v-1.196h-1.196v-1.196h1.196v1.196h1.196v-2.391h1.196v-1.196h1.196v1.196h1.196v-5.978h1.196v-1.196h-1.196V58.597z
		 M86.714,59.792h1.196v1.196h1.196v1.196H87.91v-1.196h-1.196V59.792z M114.214,59.792h1.196v1.196h1.196v1.196h-1.196v-1.196
		h-1.196V59.792z M48.453,60.988h1.196v2.391h-1.196V60.988z M79.54,60.988h1.196v2.391h1.196v1.196h-1.196v1.196H79.54v-1.196
		h-1.196v1.196h-1.196v1.196h1.196v1.196h1.196v1.196h1.196v1.196H79.54v1.196h1.196v1.196h1.196v2.391h-1.196v-2.391H79.54v-1.196
		h-1.196v-1.196h1.196v-1.196h-1.196v-1.196h-1.196v-1.196h-1.196v-1.196h-1.196v-1.196h-1.196v-1.196h1.196v-1.196h1.196v1.196
		h-1.196v1.196h1.196v1.196h1.196v-1.196h1.196v-1.196h1.196V60.988z M79.54,63.379v1.196h1.196v-1.196H79.54z M71.171,62.184h1.196
		v1.196h-1.196V62.184z M90.301,62.184h1.196v1.196h-1.196v1.196h-1.196v-1.196h1.196V62.184z M105.845,62.184h1.196v1.196h-1.196
		V62.184z M117.801,62.184h1.196v1.196h-1.196V62.184z M41.28,64.575h2.391v1.196h-1.196v1.196h1.196v1.196h1.196v2.391h1.196v2.391
		h-1.196v1.196h-1.196v1.196h-1.196V74.14h-2.391v1.196h1.196v1.196h-2.391v2.391h-1.196v-2.391h1.196V74.14h1.196v-1.196h2.391
		v-1.196h1.196v1.196h1.196v-2.391h-1.196v-1.196h-1.196v-2.391H41.28V64.575z M42.475,72.945v1.196h1.196v-1.196H42.475z
		 M47.258,64.575h1.196v1.196h1.196v-1.196h1.196v1.196h-1.196v1.196h-1.196v-1.196h-1.196V64.575z M60.41,64.575h1.196v1.196H60.41
		V64.575z M92.693,64.575h1.196v1.196h-1.196v1.196h-1.196v-1.196h1.196V64.575z M105.845,64.575h1.196v1.196h-1.196V64.575z
		 M38.888,65.771h1.196v1.196h-1.196V65.771z M62.801,65.771h1.196v1.196h-1.196V65.771z M81.932,65.771h1.196v1.196h1.196v1.196
		h1.196v1.196h-1.196v1.196h-1.196v-1.196h1.196v-1.196h-1.196v-1.196h-1.196v1.196h-1.196v-1.196h1.196V65.771z M60.41,66.966
		h1.196v2.391h1.196v1.196h-1.196v1.196H60.41v-1.196h1.196v-1.196H60.41V66.966z M87.91,68.162h1.196v1.196H87.91v1.196h-1.196
		v-1.196h1.196V68.162z M90.301,68.162h1.196v2.391h-1.196V68.162z M34.106,69.358h1.196v1.196h-1.196V69.358z M111.823,69.358
		h2.391v2.391h-1.196v-1.196h-1.196V69.358z M115.41,69.358h1.196v1.196h-1.196V69.358z M50.845,70.553h1.196v1.196h2.391v-1.196
		h1.196v1.196h-1.196v1.196h1.196v1.196h-1.196v1.196h-1.196V74.14h1.196v-1.196H52.04v-1.196h-1.196V70.553z M47.258,71.749h2.391
		v1.196h1.196v1.196h1.196v1.196h-1.196V74.14h-1.196v-1.196h-1.196v1.196h-1.196V71.749z M115.41,71.749h2.391v1.196h-2.391V71.749
		z M60.41,72.945h1.196v1.196H60.41V72.945z M97.475,72.945h1.196v2.391h-1.196v1.196H96.28v-1.196h-1.196V74.14h1.196v1.196h1.196
		V72.945z M36.497,74.14h1.196v1.196h-1.196V74.14z M90.301,74.14h1.196v2.391h-1.196V74.14z M92.693,74.14h1.196v1.196h-1.196
		V74.14z M99.867,74.14h1.196v1.196h-1.196V74.14z M55.627,75.336h1.196v1.196h-1.196V75.336z M61.606,75.336h1.196v1.196h-1.196
		V75.336z M87.91,75.336h1.196v4.783h1.196v1.196h-1.196v-1.196H87.91V75.336z M109.432,75.336h2.391v1.196h-2.391v1.196h-1.196
		v1.196h-1.196v3.587h-1.196v1.196h-1.196v1.196h-1.196v1.196h-1.196v2.391h1.196v1.196h-1.196v-1.196h-1.196v2.391h1.196v1.196
		h-1.196v-1.196h-1.196v2.391h1.196v1.196h-1.196v1.196h1.196v1.196h-1.196v1.196h1.196v1.196h1.196v1.196h1.196v1.196h-1.196
		v-1.196h-1.196v-1.196h-1.196v-1.196h-1.196v-1.196h1.196v-1.196h-1.196v-1.196h1.196v-1.196h-1.196v-3.587h1.196v-2.391h1.196
		v-1.196h1.196v-1.196h1.196v-1.196h1.196V82.51h-1.196v-1.196h1.196v1.196h1.196v-3.587h1.196v-1.196h1.196v-1.196h1.196V75.336z
		 M80.736,76.532h1.196v1.196h1.196v1.196h1.196v1.196h-1.196v1.196h-1.196v-1.196h1.196v-1.196h-1.196v-1.196h-1.196V76.532z
		 M102.258,76.532h1.196v1.196h-1.196V76.532z M46.062,77.727h1.196v1.196h-1.196V77.727z M48.453,77.727h1.196v2.391h-1.196V77.727
		z M62.801,77.727h1.196v1.196h-1.196V77.727z M65.193,77.727h1.196v1.196h1.196v1.196h1.196v1.196h-1.196v-1.196h-1.196v-1.196
		h-1.196V77.727z M43.671,78.923h1.196v1.196h-1.196V78.923z M50.845,78.923h1.196v2.391h1.196v1.196h1.196v1.196h1.196v1.196
		h-1.196v1.196h1.196v2.391h1.196v1.196h-2.391v-3.587h-1.196v-1.196h1.196v-1.196h-1.196V82.51H52.04v-1.196h-1.196V78.923z
		 M99.867,78.923h1.196v1.196h-1.196V78.923z M102.258,78.923h1.196v1.196h-1.196V78.923z M69.975,80.119h1.196v2.391h1.196v1.196
		h-1.196V82.51h-1.196V80.119z M101.062,81.314h1.196v1.196h-1.196v1.196h-1.196v1.196h-1.196v-1.196h1.196V82.51h1.196V81.314z
		 M58.019,82.51h1.196v1.196h1.196V82.51h1.196v1.196H60.41v1.196h-1.196v-1.196h-1.196V82.51z M73.562,82.51h1.196v2.391h-1.196
		V82.51z M80.736,82.51h1.196v1.196h-1.196V82.51z M83.127,82.51h1.196v1.196h-1.196V82.51z M89.106,82.51h1.196v1.196h1.196v1.196
		h1.196v1.196h1.196v1.196h-1.196v1.196h-1.196v-1.196h1.196v-1.196h-1.196v-1.196h-1.196v-1.196h-1.196V82.51z M43.671,83.705
		h1.196v1.196h-1.196V83.705z M62.801,83.705h1.196v1.196h1.196v1.196h-1.196v-1.196h-1.196V83.705z M75.953,83.705h1.196v2.391
		h-1.196V83.705z M56.823,84.901h1.196v1.196h1.196v2.391h-1.196v-2.391h-1.196V84.901z M67.584,84.901h1.196v2.391h-1.196V84.901z
		 M78.345,84.901h2.391v1.196h-2.391V84.901z M81.932,84.901h1.196v1.196h-1.196V84.901z M43.671,86.097h1.196v1.196h-1.196V86.097z
		 M111.823,86.097h1.196v1.196h-1.196V86.097z M69.975,87.292h1.196v1.196h-1.196V87.292z M72.367,87.292h1.196v2.391h-1.196V87.292
		z M97.475,87.292h1.196v1.196h-1.196V87.292z M85.519,88.488h1.196v1.196h-1.196V88.488z M93.888,88.488h1.196v1.196h1.196v1.196
		h-1.196v-1.196h-1.196v1.196h-1.196v-1.196h1.196V88.488z M59.214,89.684h1.196v1.196h-1.196V89.684z M44.867,90.879h1.196v1.196
		h-1.196V90.879z M54.432,90.879h2.391v2.391h-1.196v1.196h1.196v1.196h-2.391v-2.391h1.196v-1.196h-1.196V90.879z M72.367,90.879
		h1.196v1.196h-1.196v1.196h-1.196v2.391h-1.196v-2.391h1.196v-1.196h1.196V90.879z M58.019,92.075h1.196v1.196h-1.196V92.075z
		 M60.41,92.075h1.196v3.587h1.196v1.196h-1.196v-1.196H60.41V92.075z M81.932,92.075h1.196v2.391h-1.196V92.075z M46.062,93.271
		h1.196v1.196h-1.196V93.271z M78.345,93.271h2.391v2.391H79.54v-1.196h-1.196v1.196h-1.196v1.196h1.196v1.196h-1.196v-1.196h-1.196
		v2.391h-1.196v1.196h1.196v1.196h1.196v4.783h-1.196v-4.783h-1.196v-1.196h-1.196v-1.196h1.196v-2.391h1.196v-1.196h1.196v-1.196
		h1.196V93.271z M67.584,94.466h1.196v2.391h1.196v1.196H68.78v-1.196h-1.196V94.466z M84.323,94.466h1.196v1.196h-1.196V94.466z
		 M86.714,94.466h1.196v1.196h-1.196V94.466z M89.106,95.662h1.196v1.196h-1.196V95.662z M48.453,96.858h1.196v1.196h-1.196V96.858z
		 M54.432,96.858h2.391v3.587h-1.196v1.196h1.196v1.196h-1.196v-1.196h-1.196v-1.196h1.196v-2.391h-1.196V96.858z M65.193,96.858
		h1.196v1.196h1.196v1.196h-1.196v-1.196h-1.196v1.196h-1.196v-1.196h1.196V96.858z M61.606,98.053h1.196v1.196h-1.196V98.053z
		 M89.106,98.053h1.196v1.196h-1.196V98.053z M79.54,100.445h1.196v1.196h1.196v1.196h-1.196v-1.196H79.54V100.445z M90.301,100.445
		h1.196v1.196h-1.196V100.445z M83.127,101.64h1.196v1.196h-1.196V101.64z M85.519,101.64h1.196v1.196h-1.196V101.64z M87.91,101.64
		h1.196v1.196H87.91V101.64z M96.28,101.64h1.196v3.587h1.196v1.196h1.196v-1.196h2.391v1.196h1.196v-1.196h1.196v1.196h1.196
		v-1.196h2.391v-1.196h1.196v1.196h-1.196v2.391h-5.978v-1.196h-2.391v1.196h-1.196v1.196h1.196v2.391h-1.196v1.196h1.196v1.196
		h-2.391v1.196H96.28v-1.196h1.196v-2.391h1.196v-1.196h-1.196v-2.391h1.196v-1.196h-1.196v-1.196H96.28V101.64z M52.04,102.836
		h1.196v1.196H52.04V102.836z M61.606,102.836h1.196v2.391h1.196v1.196h-1.196v-1.196h-1.196v2.391h1.196v1.196h-1.196v4.783h1.196
		v2.391h2.391v1.196H60.41v-1.196h1.196v-1.196H60.41v-2.391h-1.196v-1.196h1.196v-2.391h-1.196v1.196h-1.196v-1.196h-1.196v2.391
		h-1.196v-1.196h-1.196v1.196h-1.196v-1.196h-2.391v-1.196h5.978v-1.196h1.196v1.196h1.196v-1.196h1.196v-2.391h1.196V102.836z
		 M60.41,107.619v1.196h1.196v-1.196H60.41z M71.171,102.836h1.196v1.196h1.196v-1.196h1.196v2.391h-3.587V102.836z M93.888,102.836
		h1.196v1.196h-1.196V102.836z M54.432,104.032h2.391v1.196h-2.391V104.032z M68.78,104.032h1.196v2.391H68.78v1.196h-1.196v1.196
		h-1.196v-1.196h1.196v-1.196h1.196V104.032z M78.345,104.032h3.587v1.196h1.196v1.196h-1.196v-1.196h-1.196v1.196H79.54v-1.196
		h-1.196V104.032z M84.323,105.227h1.196v1.196h1.196v-1.196h1.196v1.196h1.196v1.196h1.196v-1.196h1.196v1.196h1.196v1.196h-1.196
		v-1.196h-1.196v1.196h-1.196v-1.196H87.91v-1.196h-1.196v1.196h-1.196v-1.196h-1.196V105.227z M93.888,108.814h1.196v1.196h-1.196
		V108.814z M66.388,111.205h1.196v1.196h-1.196V111.205z M91.497,111.205h1.196v1.196h-1.196V111.205z M54.432,113.597h1.196v1.196
		h-1.196V113.597z M54.432,115.988h1.196v2.391h-1.196V115.988z"/>
	<path fill="#F56146" d="M72.367,25.119h1.196v1.196h-1.196v1.196h-1.196v-1.196h1.196V25.119z M73.562,27.51h1.196v1.196h-1.196
		V27.51z M69.975,28.705h1.196v1.196h-1.196V28.705z M75.953,28.705h1.196v1.196h-1.196V28.705z M68.78,31.097h1.196v2.391H68.78
		v1.196h-1.196v-1.196h1.196V31.097z M77.149,31.097h1.196v1.196h-1.196V31.097z M79.54,33.488h1.196v1.196H79.54V33.488z
		 M66.388,35.879h1.196v1.196h-1.196v1.196h-1.196v1.196h-1.196v1.196h-1.196v1.196h-1.196v-1.196h1.196v-1.196h1.196v-1.196h1.196
		v-1.196h1.196V35.879z M78.345,35.879h1.196v1.196h-1.196V35.879z M83.127,35.879h1.196v1.196h1.196v1.196h-1.196v-1.196h-1.196
		V35.879z M87.91,38.271h1.196v1.196h1.196v1.196h-1.196v-1.196H87.91V38.271z M83.127,39.466h1.196v1.196h-1.196V39.466z
		 M91.497,40.662h1.196v1.196h-1.196V40.662z M59.214,41.858h1.196v1.196h-1.196v1.196h-1.196v1.196h-1.196v1.196h-1.196v1.196
		h-1.196V46.64h1.196v-1.196h1.196v-1.196h1.196v-1.196h1.196V41.858z M80.736,41.858h1.196v1.196h-1.196V41.858z M93.888,41.858
		h1.196v1.196h-1.196V41.858z M67.584,43.053h1.196v1.196h-1.196V43.053z M69.975,43.053h1.196v1.196h-1.196V43.053z M72.367,44.249
		h1.196v1.196h-1.196V44.249z M78.345,44.249h1.196v1.196h-1.196V44.249z M96.28,44.249h1.196v1.196H96.28V44.249z M98.671,45.445
		h1.196v1.196h-1.196V45.445z M78.345,46.64h1.196v1.196h-1.196V46.64z M81.932,46.64h1.196v1.196h-1.196V46.64z M52.04,47.836
		h1.196v2.391H52.04V47.836z M71.171,47.836h1.196v1.196h-1.196V47.836z M74.758,47.836h1.196v1.196h-1.196V47.836z M102.258,47.836
		h1.196v1.196h-1.196V47.836z M78.345,49.032h1.196v1.196h-1.196V49.032z M49.649,50.227h1.196v1.196h-1.196v1.196h-1.196v1.196
		h-1.196v1.196h-1.196v1.196h-1.196v1.196h-1.196v-1.196h1.196V55.01h1.196v-1.196h1.196v-1.196h1.196v-1.196h1.196V50.227z
		 M71.171,50.227h1.196v1.196h-1.196V50.227z M105.845,50.227h1.196v1.196h-1.196V50.227z M75.953,51.423h1.196v1.196h-1.196V51.423
		z M83.127,51.423h1.196v1.196h-1.196V51.423z M101.062,51.423h1.196v1.196h-1.196V51.423z M71.171,52.619h1.196v1.196h-1.196
		V52.619z M109.432,52.619h1.196v1.196h-1.196V52.619z M85.519,53.814h1.196v1.196h-1.196V53.814z M103.453,53.814h1.196v1.196
		h-1.196V53.814z M111.823,53.814h1.196v1.196h-1.196V53.814z M69.975,55.01h1.196v1.196h-1.196V55.01z M81.932,55.01h1.196v1.196
		h-1.196V55.01z M114.214,55.01h1.196v1.196h-1.196V55.01z M116.606,56.205h1.196v1.196h-1.196V56.205z M118.997,56.205h1.196v1.196
		h-1.196V56.205z M41.28,57.401h1.196v2.391H41.28V57.401z M68.78,57.401h1.196v1.196H68.78V57.401z M87.91,57.401h1.196v1.196
		H87.91v1.196h-1.196v-1.196h1.196V57.401z M121.388,57.401h1.196v1.196h-1.196V57.401z M123.78,57.401h1.196v1.196h-1.196V57.401z
		 M126.171,57.401h1.196v1.196h-1.196V57.401z M107.04,58.597h1.196v1.196h-1.196V58.597z M38.888,59.792h1.196v1.196h-1.196v1.196
		h-1.196v-1.196h1.196V59.792z M66.388,59.792h1.196v2.391h-1.196V59.792z M77.149,59.792h1.196v1.196h-1.196V59.792z
		 M90.301,59.792h1.196v1.196h1.196v1.196h-1.196v-1.196h-1.196v1.196h-1.196v-1.196h1.196V59.792z M127.367,59.792h1.196v1.196
		h-1.196V59.792z M63.997,60.988h1.196v1.196h-1.196V60.988z M71.171,60.988h1.196v1.196h-1.196V60.988z M110.627,60.988h1.196
		v1.196h-1.196V60.988z M35.301,62.184h1.196v1.196h-1.196v1.196h-1.196v-1.196h1.196V62.184z M61.606,62.184h1.196v1.196h-1.196
		V62.184z M107.04,62.184h1.196v2.391h-1.196V62.184z M121.388,62.184h1.196v1.196h-1.196V62.184z M41.28,63.379h1.196v1.196H41.28
		V63.379z M59.214,63.379h1.196v1.196h-1.196V63.379z M63.997,63.379h1.196v1.196h-1.196V63.379z M77.149,63.379h1.196v1.196h1.196
		v2.391h-1.196v-2.391h-1.196V63.379z M91.497,63.379h1.196v1.196h-1.196V63.379z M93.888,63.379h1.196v1.196h1.196v1.196h-1.196
		v-1.196h-1.196V63.379z M31.714,64.575h1.196v1.196h-1.196V64.575z M55.627,64.575h2.391v1.196h-2.391V64.575z M61.606,64.575
		h1.196v1.196h-1.196V64.575z M104.649,64.575h1.196v1.196h-1.196V64.575z M120.193,64.575h1.196v1.196h-1.196V64.575z
		 M29.323,65.771h1.196v1.196h-1.196V65.771z M42.475,65.771h1.196v1.196h-1.196V65.771z M46.062,65.771h1.196v1.196h-1.196V65.771z
		 M50.845,65.771h1.196v1.196h-1.196V65.771z M53.236,65.771h1.196v1.196h-1.196V65.771z M92.693,65.771h1.196v1.196h-1.196V65.771z
		 M98.671,65.771h1.196v1.196h-1.196V65.771z M101.062,65.771h2.391v1.196h-2.391V65.771z M26.932,66.966h1.196v1.196h-1.196V66.966
		z M36.497,66.966h1.196v1.196h-1.196V66.966z M48.453,66.966h1.196v1.196h-1.196V66.966z M24.54,68.162h1.196v2.391H24.54V68.162z
		 M79.54,68.162h1.196v1.196H79.54V68.162z M81.932,68.162h1.196v1.196h-1.196V68.162z M91.497,68.162h1.196v1.196h-1.196V68.162z
		 M118.997,68.162h1.196v1.196h-1.196V68.162z M46.062,69.358h1.196v1.196h-1.196V69.358z M84.323,69.358h1.196v1.196h-1.196V69.358
		z M89.106,69.358h1.196v1.196h-1.196V69.358z M31.714,70.553h1.196v1.196h-1.196V70.553z M80.736,70.553h1.196v2.391h-1.196V70.553
		z M86.714,70.553h1.196v1.196h-1.196V70.553z M104.649,70.553h1.196v1.196h1.196v1.196h-1.196v-1.196h-1.196V70.553z
		 M108.236,70.553h2.391v1.196h-2.391V70.553z M111.823,70.553h1.196v1.196h-1.196V70.553z M114.214,70.553h1.196v1.196h-1.196
		V70.553z M25.736,71.749h1.196v1.196h-1.196V71.749z M117.801,71.749h1.196v1.196h-1.196V71.749z M28.127,72.945h1.196v1.196
		h-1.196V72.945z M44.867,72.945h1.196v1.196h-1.196V72.945z M55.627,72.945h1.196v1.196h-1.196V72.945z M115.41,72.945h1.196v1.196
		h-1.196V72.945z M41.28,74.14h1.196v1.196H41.28V74.14z M47.258,74.14h1.196v1.196h-1.196V74.14z M49.649,74.14h1.196v1.196h-1.196
		V74.14z M52.04,74.14h1.196v1.196H52.04V74.14z M59.214,74.14h1.196v1.196h-1.196V74.14z M81.932,74.14h1.196v1.196h-1.196V74.14z
		 M102.258,74.14h1.196v1.196h-1.196V74.14z M30.519,75.336h1.196v1.196h-1.196V75.336z M34.106,75.336h1.196v1.196h-1.196V75.336z
		 M54.432,75.336h1.196v1.196h-1.196V75.336z M38.888,76.532h1.196v2.391h-1.196V76.532z M43.671,76.532h1.196v1.196h-1.196V76.532z
		 M61.606,76.532h1.196v1.196h-1.196V76.532z M114.214,76.532h1.196v1.196h-1.196V76.532z M31.714,77.727h1.196v1.196h-1.196V77.727
		z M83.127,77.727h1.196v1.196h-1.196V77.727z M102.258,77.727h1.196v1.196h-1.196V77.727z M36.497,78.923h1.196v1.196h-1.196
		V78.923z M52.04,78.923h1.196v1.196H52.04V78.923z M63.997,78.923h1.196v1.196h-1.196V78.923z M114.214,78.923h1.196v1.196h-1.196
		V78.923z M34.106,80.119h1.196v1.196h-1.196V80.119z M86.714,80.119h1.196v1.196h1.196v1.196H87.91v-1.196h-1.196V80.119z
		 M101.062,80.119h1.196v1.196h-1.196V80.119z M67.584,81.314h1.196v1.196h-1.196V81.314z M83.127,81.314h1.196v1.196h-1.196V81.314
		z M114.214,81.314h1.196v1.196h-1.196V81.314z M35.301,82.51h1.196v1.196h-1.196V82.51z M54.432,82.51h1.196v1.196h-1.196V82.51z
		 M62.801,82.51h1.196v1.196h-1.196V82.51z M69.975,82.51h1.196v1.196h-1.196V82.51z M101.062,82.51h1.196v1.196h-1.196v1.196
		h-1.196v-1.196h1.196V82.51z M65.193,83.705h1.196v1.196h-1.196V83.705z M81.932,83.705h1.196v1.196h-1.196v1.196h-1.196v-1.196
		h1.196V83.705z M35.301,84.901h1.196v1.196h-1.196V84.901z M55.627,84.901h1.196v3.587h1.196v1.196h-1.196v1.196h-1.196v-1.196
		h1.196v-1.196h-1.196V84.901z M72.367,84.901h1.196v1.196h-1.196v1.196h-1.196v-1.196h1.196V84.901z M114.214,84.901h1.196v1.196
		h-1.196V84.901z M75.953,86.097h3.587v1.196h-3.587V86.097z M90.301,86.097h1.196v1.196h-1.196V86.097z M98.671,86.097h1.196v1.196
		h-1.196V86.097z M36.497,87.292h1.196v1.196h-1.196V87.292z M73.562,88.488h1.196v1.196h-1.196V88.488z M91.497,88.488h1.196v1.196
		h-1.196V88.488z M98.671,88.488h1.196v1.196h-1.196v1.196h-1.196v1.196H96.28v-1.196h1.196v-1.196h1.196V88.488z M113.019,88.488
		h1.196v1.196h-1.196V88.488z M116.606,89.684h1.196v1.196h-1.196V89.684z M37.693,90.879h1.196v1.196h-1.196V90.879z
		 M73.562,90.879h1.196v1.196h-1.196V90.879z M93.888,90.879h1.196v1.196h-1.196V90.879z M56.823,92.075h1.196v1.196h1.196v1.196
		h-1.196v1.196h-1.196v-1.196h1.196v-1.196h-1.196V92.075z M111.823,92.075h1.196v1.196h-1.196V92.075z M38.888,93.271h1.196v1.196
		h-1.196V93.271z M71.171,93.271h1.196v2.391h-1.196V93.271z M85.519,93.271h1.196v1.196h-1.196V93.271z M116.606,93.271h1.196
		v1.196h-1.196V93.271z M43.671,94.466h1.196v1.196h-1.196V94.466z M40.084,95.662h1.196v1.196h-1.196V95.662z M68.78,95.662h1.196
		v1.196H68.78v1.196h-1.196v-1.196h1.196V95.662z M90.301,95.662h1.196v1.196h-1.196V95.662z M110.627,95.662h1.196v1.196h-1.196
		V95.662z M56.823,96.858h1.196v1.196h-1.196V96.858z M46.062,98.053h1.196v1.196h-1.196V98.053z M60.41,98.053h1.196v1.196H60.41
		V98.053z M65.193,98.053h1.196v1.196h-1.196V98.053z M98.671,98.053h1.196v1.196h-1.196V98.053z M109.432,98.053h1.196v1.196
		h-1.196v1.196h-1.196v-1.196h1.196V98.053z M42.475,99.249h1.196v1.196h-1.196V99.249z M56.823,99.249h1.196v1.196h-1.196V99.249z
		 M62.801,99.249h1.196v1.196h-1.196V99.249z M91.497,100.445h1.196v1.196h-1.196V100.445z M42.475,101.64h1.196v1.196h-1.196
		V101.64z M73.562,101.64h1.196v1.196h1.196v1.196h-1.196v-1.196h-1.196V101.64z M77.149,101.64h1.196v1.196h1.196v1.196h-1.196
		v-1.196h-1.196V101.64z M89.106,101.64h1.196v1.196h-1.196v1.196H87.91v-1.196h1.196V101.64z M101.062,101.64h1.196v1.196h-1.196
		V101.64z M104.649,101.64h1.196v1.196h-1.196V101.64z M55.627,102.836h1.196v1.196h-1.196V102.836z M80.736,102.836h1.196v1.196
		h1.196v-1.196h1.196v1.196h-1.196v1.196h-1.196v-1.196h-1.196V102.836z M85.519,102.836h1.196v1.196h-1.196V102.836z
		 M43.671,104.032h1.196v1.196h-1.196V104.032z M62.801,104.032h1.196v1.196h-1.196V104.032z M98.671,104.032h1.196v1.196h-1.196
		V104.032z M52.04,105.227h1.196v1.196H52.04V105.227z M54.432,105.227h1.196v1.196h-1.196V105.227z M95.084,105.227h1.196v1.196
		h1.196v1.196H96.28v-1.196h-1.196V105.227z M102.258,105.227h1.196v1.196h-1.196V105.227z M44.867,106.423h1.196v1.196h-1.196
		V106.423z M58.019,106.423h1.196v1.196h-1.196V106.423z M61.606,106.423h1.196v1.196h-1.196V106.423z M109.432,106.423h1.196v1.196
		h-1.196V106.423z M92.693,107.619h1.196v1.196h-1.196V107.619z M46.062,108.814h1.196v1.196h-1.196V108.814z M61.606,108.814h1.196
		v1.196h-1.196V108.814z M65.193,108.814h1.196v1.196h-1.196V108.814z M109.432,108.814h1.196v1.196h-1.196V108.814z M97.475,110.01
		h1.196v1.196h-1.196V110.01z M47.258,111.205h1.196v1.196h-1.196V111.205z M61.606,111.205h1.196v1.196h-1.196V111.205z
		 M93.888,111.205h1.196v1.196h-1.196V111.205z M109.432,111.205h1.196v1.196h-1.196V111.205z M48.453,113.597h1.196v1.196h-1.196
		V113.597z M65.193,113.597h1.196v1.196h-1.196V113.597z M90.301,113.597h1.196v1.196h-1.196V113.597z M62.801,114.792h1.196v1.196
		h-1.196V114.792z M67.584,114.792h1.196v1.196h-1.196V114.792z M86.714,114.792h1.196v1.196h-1.196V114.792z M96.28,114.792h1.196
		v1.196H96.28V114.792z M98.671,114.792h1.196v1.196h-1.196V114.792z M108.236,114.792h1.196v1.196h-1.196V114.792z
		 M113.019,114.792h1.196v1.196h-1.196V114.792z M48.453,115.988h1.196v1.196h-1.196V115.988z M71.171,115.988h1.196v1.196h-1.196
		V115.988z M73.562,115.988h1.196v1.196h-1.196V115.988z M75.953,115.988h1.196v1.196h-1.196V115.988z M78.345,115.988h1.196v1.196
		h-1.196V115.988z M80.736,115.988h1.196v1.196h-1.196V115.988z M83.127,115.988h1.196v1.196h-1.196V115.988z M102.258,115.988
		h1.196v1.196h-1.196V115.988z M104.649,115.988h1.196v1.196h-1.196V115.988z M63.997,117.184h1.196v1.196h-1.196V117.184z
		 M49.649,118.379h1.196v1.196h-1.196V118.379z M61.606,118.379h1.196v1.196h-1.196V118.379z M58.019,119.575h1.196v1.196h-1.196
		V119.575z M96.28,119.575h1.196v1.196H96.28V119.575z M108.236,119.575h1.196v1.196h-1.196V119.575z M49.649,120.771h1.196v1.196
		h-1.196V120.771z M54.432,120.771h1.196v1.196h-1.196V120.771z M113.019,120.771h1.196v1.196h-1.196V120.771z M62.801,121.966
		h1.196v1.196h-1.196V121.966z M49.649,123.162h1.196v1.196h-1.196V123.162z M59.214,123.162h1.196v1.196h-1.196V123.162z
		 M56.823,124.358h1.196v1.196h-1.196V124.358z M50.845,125.553h1.196v1.196h-1.196V125.553z"/>
	<path fill="#373739" d="M71.171,27.51h2.391v1.196h1.196v1.196h1.196v1.196h1.196v1.196h2.391v2.391h2.391v1.196h1.196v1.196h1.196
		v1.196h2.391v1.196h1.196v1.196h2.391v1.196h2.391v1.196h2.391v1.196h1.196v1.196h2.391v1.196h2.391v1.196h1.196v1.196h2.391v1.196
		h1.196v1.196h2.391v1.196h1.196v1.196h2.391v1.196h2.391v1.196h2.391v1.196h4.783v1.196h1.196v-1.196h1.196v1.196h1.196v-1.196
		h1.196v1.196h1.196v1.196h-1.196v2.391h-1.196v2.391h-1.196v2.391h-1.196v3.587h-1.196v3.587h-1.196v4.783h-1.196v4.783h-1.196
		v4.783h-1.196v4.783h-1.196v5.978h-1.196v3.587h-1.196v13.152h1.196v3.587h-4.783v-1.196h-1.196v1.196h-1.196v-1.196H93.888v1.196
		h-1.196v-1.196h-1.196v1.196h-2.391v-1.196H87.91v1.196h-5.978v1.196h-1.196v-1.196H79.54v1.196h-1.196v-1.196h-1.196v1.196H65.193
		v1.196h-1.196v-1.196h-1.196v1.196h-3.587v1.196h-2.391v1.196h-2.391v2.391h-1.196v-1.196h-2.391v-7.174h-1.196v-4.783h-1.196
		v-2.391h-1.196v-3.587h-1.196v-2.391h-1.196v-2.391h-1.196v-3.587h-1.196v-1.196H41.28v-3.587h-1.196v-2.391h-1.196v-2.391h-1.196
		v-3.587h-1.196V82.51h-1.196v-2.391h-1.196v-1.196H32.91v-2.391h-1.196v-1.196h-1.196V74.14h-1.196v-1.196h-1.196v-1.196h-1.196
		v-1.196h-1.196v-2.391h3.587v-1.196h2.391v-1.196h1.196v-1.196h3.587v-2.391h2.391v-1.196h1.196v-1.196h2.391v-2.391h2.391v-1.196
		h1.196V55.01h1.196v-1.196h1.196v-1.196h2.391v-2.391h2.391v-1.196h1.196v-1.196h1.196V46.64h1.196v-1.196h2.391v-2.391h2.391
		v-1.196h1.196v-1.196h1.196v-1.196h1.196v-1.196h1.196v-1.196h1.196v-2.391h1.196v-1.196h1.196v-3.587h1.196V27.51z M72.367,32.292
		v1.196h-1.196v2.391h-1.196v1.196H68.78v2.391h-1.196v1.196h-1.196v1.196h1.196v2.391h1.196v-1.196h1.196v1.196h2.391v1.196h1.196
		v1.196h1.196v3.587h1.196v2.391h2.391v-1.196h1.196v-7.174h1.196v-1.196h2.391v-1.196h1.196v-2.391h-2.391v-1.196h-1.196v-1.196
		H79.54v-1.196h-1.196v-1.196h-2.391v-1.196h-1.196v-1.196H72.367z M84.323,44.249v1.196h-2.391v3.587h1.196v3.587h1.196v1.196
		h1.196v1.196h1.196v2.391h1.196v1.196h1.196v1.196h1.196v1.196h-1.196v-1.196H87.91v-1.196h-2.391v-1.196h-1.196v-1.196h-1.196
		V55.01h-4.783v2.391h-1.196v3.587h1.196v2.391h-2.391v-1.196h-2.391v-1.196h-5.978v-1.196h1.196v-1.196h1.196v-1.196h1.196V55.01
		h1.196v-7.174h-1.196V46.64H68.78v-1.196h-1.196v1.196h-1.196v-1.196h-1.196v1.196h-3.587v1.196h-2.391v1.196h-1.196v1.196h-2.391
		v1.196h-1.196v1.196h-1.196v1.196H52.04v1.196h-1.196v1.196h-1.196v1.196h-1.196v2.391h-1.196v1.196h-1.196v5.978h2.391v1.196
		h1.196v-1.196h4.783v-1.196h3.587v-1.196h2.391v-1.196h2.391v1.196H60.41v2.391h-1.196v8.37h1.196v2.391h2.391v1.196h1.196v1.196
		h2.391v1.196h1.196v1.196h2.391v1.196h2.391v2.391h1.196v-1.196h1.196v1.196h1.196v1.196h3.587v-1.196h3.587v-2.391h1.196v-5.978
		h-1.196V74.14h-1.196v-3.587h-1.196v-2.391H79.54v-2.391h1.196v2.391h1.196v1.196h1.196v1.196h3.587v1.196h1.196v-1.196h3.587
		v-1.196h1.196v-2.391h1.196v-2.391h-1.196v-1.196h-1.196v-1.196h1.196v1.196h1.196v1.196h1.196v1.196h3.587v1.196h5.978v-1.196
		h2.391v-1.196h1.196v-5.978h-1.196v-1.196h-1.196V55.01h-1.196v-1.196h-1.196v-1.196h-1.196v-1.196h-2.391v-1.196h-1.196v-1.196
		H96.28v-1.196h-2.391V46.64h-3.587v-1.196H87.91v-1.196h-1.196v1.196h-1.196v-1.196H84.323z M110.627,57.401v8.37h-1.196v1.196
		h-1.196v1.196h-2.391v1.196h-1.196v2.391h1.196v1.196h1.196v-1.196h3.587v-1.196h1.196v1.196h3.587v2.391h2.391v-1.196h1.196
		v-2.391h1.196v-3.587h1.196v-2.391h1.196v-3.587h-1.196v-1.196h-4.783v-1.196h-2.391v-1.196h-1.196v1.196h-1.196v-1.196H110.627z
		 M41.28,62.184v1.196h-2.391v1.196h-1.196v1.196h-2.391v1.196h-1.196v1.196h-2.391v1.196h-1.196v2.391h1.196v1.196h1.196v1.196
		h1.196v2.391h1.196v1.196h1.196v2.391h1.196v-1.196h2.391v-2.391h1.196v-1.196h2.391V74.14h3.587v1.196h1.196V74.14h1.196v1.196
		h3.587v1.196h3.587v-1.196h-1.196V74.14h1.196v-1.196h-1.196v-2.391h-1.196v-1.196h-1.196v1.196H52.04v-1.196h-1.196v1.196h-3.587
		v-1.196h-2.391v-1.196h-1.196v-3.587h-1.196v-2.391H41.28z M90.301,72.945v1.196H87.91v1.196h-1.196v5.978h1.196v1.196h1.196v2.391
		h1.196v2.391h1.196v2.391h1.196v1.196h1.196v1.196h3.587v-1.196h1.196v8.37h1.196v1.196h1.196v2.391h5.978v-1.196h1.196v-1.196
		h1.196v-1.196h1.196v-2.391h1.196v-2.391h1.196v-3.587h1.196v-4.783h1.196v-1.196h-1.196v-1.196h1.196v-7.174h-1.196v-1.196h-1.196
		V74.14h-3.587v1.196h-1.196v1.196h-1.196v1.196h-1.196v2.391h-1.196v1.196h-1.196v2.391h-1.196v2.391h-1.196v1.196h-1.196v-1.196
		h1.196v-2.391h1.196v-3.587h1.196V74.14h-1.196v-1.196h-7.174v1.196h-1.196v-1.196h-1.196v1.196h-1.196v-1.196H90.301z
		 M43.671,76.532v1.196h-1.196v1.196H41.28v1.196h1.196v1.196H41.28v5.978h1.196v4.783h1.196v3.587h1.196v2.391h1.196v2.391h2.391
		v2.391h1.196v1.196h1.196v1.196h1.196v1.196h3.587v-1.196h1.196v-4.783h1.196v-1.196h-1.196v-1.196h1.196v-1.196h-1.196v-1.196
		h1.196v-1.196h-1.196v-1.196h1.196v1.196h1.196v2.391h1.196v2.391h2.391v1.196h1.196v-1.196h3.587v-1.196h2.391v-2.391h2.391
		v-2.391h1.196v-1.196h1.196v-3.587h-1.196v-1.196h-1.196v-1.196H68.78v-1.196h-2.391v-1.196h-1.196V82.51h-3.587v-1.196H60.41
		v1.196h-1.196v-1.196h-1.196v1.196h-1.196v2.391h-1.196V82.51h-1.196v-1.196h-1.196v-2.391h-2.391v-1.196h-3.587v-1.196h-1.196
		v1.196h-1.196v-1.196H43.671z M85.519,87.292v1.196h-1.196v1.196h3.587v-1.196h-1.196v-1.196H85.519z M78.345,92.075v1.196h-1.196
		v1.196h-1.196v1.196h-1.196v1.196h-1.196v2.391h-1.196v1.196h1.196v2.391h-3.587v1.196h-2.391v2.391h-1.196v1.196h-1.196v3.587
		h-1.196v1.196h1.196v2.391h2.391v1.196h3.587v1.196h13.152v-1.196h4.783v-1.196h3.587v-1.196h1.196v-1.196h1.196v-3.587h-1.196
		v-1.196h-2.391v-1.196H87.91v-1.196h-4.783v-1.196h-1.196v-1.196h1.196v1.196h1.196v-1.196h1.196v1.196h1.196v-1.196h1.196v1.196
		h1.196v-1.196h2.391v-1.196h1.196v-1.196h-1.196v-1.196h1.196v-1.196h-1.196v-2.391H87.91v-1.196h-1.196v-1.196h-3.587v-1.196
		H78.345z M95.084,101.64v1.196h-1.196v1.196h1.196v2.391h1.196v1.196h1.196v5.978H96.28v2.391h2.391v1.196h1.196v-1.196h2.391
		v1.196h1.196v-1.196h1.196v1.196h1.196v-1.196h1.196v1.196h1.196v-1.196h1.196v1.196h1.196v-11.957h-1.196v-1.196h-1.196v1.196
		h-2.391v1.196h-1.196v-1.196h-4.783v-1.196h-1.196v-1.196h-1.196v-1.196H95.084z M60.41,102.836v1.196h-1.196v2.391h-1.196v1.196
		h-1.196v1.196h-7.174v1.196h1.196v4.783h1.196v3.587h1.196v3.587h3.587v-1.196h2.391v-1.196h4.783v-1.196h1.196v-2.391h-1.196
		v-1.196h-1.196v-1.196h-1.196v-1.196h1.196v-1.196h-1.196v-1.196h1.196v-3.587h1.196v-3.587H60.41z M63.997,62.184h1.196v1.196
		h-1.196V62.184z M56.823,89.684h1.196v2.391h-1.196V89.684z M77.149,102.836h1.196v1.196h-1.196V102.836z M79.54,102.836h1.196
		v1.196H79.54V102.836z"/>
	<path fill="#F4D647" d="M72.367,32.292h2.391v1.196h1.196v1.196h2.391v2.391h2.391v1.196h1.196v1.196h1.196v2.391h-1.196v-1.196
		h-1.196v-1.196h-2.391v-1.196h-1.196v-1.196h-1.196v-1.196h-3.587v2.391h-1.196v1.196h-1.196v1.196H68.78v1.196h-2.391v-1.196
		h1.196v-1.196h1.196v-2.391h1.196v-1.196h1.196v-2.391h1.196V32.292z M72.367,41.858h1.196v1.196h-1.196V41.858z M79.54,41.858
		h1.196v1.196H79.54V41.858z M74.758,44.249h1.196v1.196h-1.196v1.196h1.196v1.196h-1.196V46.64h-1.196v-1.196h1.196V44.249z
		 M77.149,44.249h1.196v1.196h-1.196V44.249z M84.323,44.249h1.196v1.196h1.196v-1.196h1.196v1.196h2.391v1.196h3.587v1.196h2.391
		v1.196h2.391v1.196h1.196v1.196h1.196v1.196h2.391v2.391h2.391v2.391h1.196v2.391h1.196v2.391h-2.391v-3.587h-1.196v-1.196h-1.196
		v-1.196h-1.196V55.01h-1.196v-1.196h-1.196v-1.196h-1.196v-1.196H96.28v-1.196h-2.391v-1.196h-2.391v-1.196H87.91V46.64h-3.587
		v2.391h-1.196V46.64h-1.196v-1.196h2.391V44.249z M65.193,45.445h1.196v1.196h1.196v-1.196h1.196v1.196h2.391v2.391h1.196v1.196
		h-1.196v1.196h-1.196v-1.196h1.196v-1.196h-1.196v-1.196h-5.978v1.196h-2.391v1.196h-2.391v1.196h-1.196v1.196h-2.391v2.391h-2.391
		v1.196H52.04v2.391h-1.196v1.196h-1.196v1.196h-1.196v3.587h-1.196v1.196h1.196v1.196h-1.196v-1.196h-1.196v-4.783h1.196v-1.196
		h1.196v-2.391h1.196v-1.196h1.196V55.01h1.196v-1.196h1.196v-1.196h1.196v-1.196h1.196v-1.196h2.391v-1.196h1.196v-1.196h2.391
		V46.64h3.587V45.445z M77.149,46.64h1.196v1.196h1.196v1.196h-1.196v-1.196h-1.196V46.64z M75.953,49.032h1.196v2.391h-1.196
		V49.032z M78.345,50.227h1.196v1.196h-1.196V50.227z M83.127,50.227h1.196v1.196h-1.196V50.227z M69.975,52.619h1.196v1.196h-1.196
		V52.619z M85.519,52.619h1.196v1.196h-1.196V52.619z M68.78,55.01h1.196v1.196H68.78V55.01z M78.345,55.01h3.587v1.196h2.391v1.196
		h1.196v1.196h1.196v2.391h1.196v-1.196h1.196v1.196H87.91v2.391h-1.196v-2.391h-1.196v-2.391h-2.391v-1.196h-1.196v-1.196H79.54
		v1.196h-1.196v2.391h1.196v3.587h1.196v1.196h1.196v2.391h1.196v1.196h1.196v1.196h-1.196v-1.196h-1.196v-1.196h-1.196v-2.391
		H79.54v-1.196h-1.196v-3.587h-1.196v-2.391h1.196V55.01z M87.91,55.01h1.196v1.196H87.91v1.196h-1.196v-1.196h1.196V55.01z
		 M67.584,57.401h1.196v1.196h-1.196v1.196h-1.196v1.196h-1.196v-1.196h-1.196v-1.196h1.196v1.196h1.196v-1.196h1.196V57.401z
		 M89.106,57.401h1.196v1.196h1.196v1.196h-1.196v-1.196h-1.196V57.401z M110.627,57.401h1.196v1.196h1.196v-1.196h1.196v1.196
		h2.391v1.196h4.783v1.196h1.196v1.196h-1.196v1.196h1.196v1.196h-2.391v1.196h1.196v1.196h-1.196v1.196h-1.196v1.196h1.196v1.196
		h-1.196v1.196h-2.391v-1.196h1.196v-4.783h1.196v-2.391h1.196v-1.196h-3.587v-1.196h-1.196v1.196h-1.196v-1.196h-1.196v-1.196
		h-1.196v-1.196h-1.196V57.401z M114.214,59.792v1.196h1.196v-1.196H114.214z M61.606,59.792h1.196v1.196h1.196v1.196h-1.196v-1.196
		h-1.196V59.792z M59.214,60.988h1.196v1.196h1.196v1.196H60.41v-1.196h-1.196V60.988z M68.78,60.988h2.391v2.391h-1.196v-1.196
		H68.78v1.196h-1.196v1.196h-1.196v-1.196h-1.196v-1.196h1.196v1.196h1.196v-1.196h1.196V60.988z M72.367,60.988h1.196v1.196h1.196
		v1.196h2.391v2.391h1.196v1.196h1.196v1.196h-1.196v1.196h1.196v1.196h1.196v1.196H79.54v1.196h1.196v2.391h2.391v2.391h-1.196
		v-1.196h-1.196v-1.196H79.54v-2.391h-1.196v-1.196h1.196v-1.196h-1.196v-1.196h-1.196v-1.196h1.196v-1.196h-1.196v-1.196h-1.196
		v-1.196h-1.196v-1.196h-2.391V60.988z M90.301,60.988h1.196v1.196h-1.196v1.196h1.196v1.196h1.196v1.196h-1.196v-1.196h-1.196
		v-1.196h-1.196v-1.196h1.196V60.988z M41.28,62.184h1.196v1.196H41.28v3.587h-1.196v-1.196h-1.196v1.196h-2.391v2.391h-2.391v3.587
		h2.391v2.391h1.196v3.587h-1.196v-1.196h-1.196v-2.391h-1.196V74.14H32.91v-1.196h-1.196v-1.196h-1.196v-2.391h1.196v-1.196h2.391
		v-1.196h1.196v-1.196h2.391v-1.196h1.196v-1.196h2.391V62.184z M31.714,70.553v1.196h1.196v-1.196H31.714z M56.823,62.184h1.196
		v1.196h1.196v1.196h-1.196v-1.196h-1.196V62.184z M92.693,62.184h1.196v1.196h-1.196V62.184z M95.084,62.184h1.196v1.196h1.196
		v1.196H96.28v-1.196h-1.196V62.184z M53.236,63.379h1.196v1.196h1.196v1.196h-1.196v-1.196h-1.196V63.379z M62.801,63.379h1.196
		v2.391h-1.196v2.391h-1.196v-1.196H60.41v2.391h1.196v1.196H60.41v3.587h-1.196v-7.174h1.196v-1.196h2.391V63.379z M98.671,63.379
		h1.196v1.196h1.196v1.196h-1.196v-1.196h-1.196V63.379z M102.258,63.379h1.196v1.196h1.196v-1.196h2.391v1.196h-2.391v1.196h-1.196
		v-1.196h-1.196V63.379z M111.823,63.379h1.196v1.196h-1.196V63.379z M49.649,65.771h1.196v1.196h-1.196V65.771z M109.432,65.771
		h1.196v2.391h-1.196v2.391h-1.196v1.196h-1.196v-1.196h-1.196v-2.391h1.196v2.391h1.196v-2.391h1.196V65.771z M90.301,66.966h2.391
		v1.196h-2.391V66.966z M41.28,68.162h1.196v1.196h1.196v1.196h1.196v-1.196h1.196v1.196h4.783v-1.196h1.196v1.196h1.196v-1.196
		h1.196v2.391h1.196v1.196h-1.196v1.196h1.196v1.196h-1.196v1.196h-1.196v-1.196h1.196V74.14h-1.196v-1.196h1.196v-1.196H52.04
		v2.391h-1.196v-2.391h-4.783v-1.196h-1.196v1.196h-1.196v-1.196h-1.196v-1.196H41.28V68.162z M50.845,70.553v1.196h1.196v-1.196
		H50.845z M86.714,68.162h1.196v1.196h1.196v1.196H87.91v-1.196h-1.196v1.196h-1.196v-1.196h1.196V68.162z M110.627,69.358h1.196
		v1.196h-1.196V69.358z M114.214,69.358h1.196v1.196h-1.196V69.358z M41.28,71.749h1.196v1.196h1.196v1.196h-1.196v-1.196H41.28
		V71.749z M46.062,72.945h1.196v1.196h-1.196V72.945z M48.453,72.945h1.196v1.196h-1.196V72.945z M90.301,72.945h1.196v1.196h1.196
		v-1.196h1.196v1.196h1.196v-1.196h2.391v2.391H96.28V74.14h-1.196v1.196h-1.196V74.14h-1.196v1.196h-1.196V74.14h-1.196v2.391
		h-1.196v-1.196H87.91v4.783h1.196v1.196h1.196v1.196h-1.196v-1.196H87.91v-1.196h-1.196v-4.783h1.196V74.14h2.391V72.945z
		 M98.671,72.945h3.587v2.391h1.196v1.196h-1.196v3.587h-1.196v2.391h-1.196v1.196h-1.196V82.51h1.196v-2.391h1.196v-3.587h1.196
		v-1.196h-1.196V74.14h-1.196v1.196h-1.196V72.945z M116.606,72.945h1.196v1.196h-1.196V72.945z M40.084,74.14h1.196v1.196h-1.196
		V74.14z M109.432,74.14h3.587v1.196h1.196v2.391h1.196v1.196h-1.196v1.196h1.196v1.196h-1.196v1.196h1.196v1.196h-1.196v4.783
		h-1.196v1.196h1.196v1.196h-1.196v1.196h-1.196v1.196h1.196v1.196h-1.196v1.196h-1.196v2.391h-1.196v1.196h-1.196v2.391h-1.196
		v1.196h-1.196v-3.587h1.196v-1.196h1.196v-2.391h1.196v-1.196h1.196v-3.587h1.196v-3.587h1.196v-1.196h-1.196v-1.196h1.196v-1.196
		h-1.196V82.51h1.196v-3.587h-1.196v-1.196h1.196v-1.196h-1.196v-1.196h-2.391v1.196h-1.196v1.196h-1.196v1.196h1.196v1.196h-1.196
		v-1.196h-1.196v-1.196h1.196v-1.196h1.196v-1.196h1.196V74.14z M60.41,75.336h1.196v2.391H60.41V75.336z M46.062,76.532h1.196
		v1.196h1.196v2.391h-1.196v-2.391h-1.196v1.196h-2.391v9.565h1.196v3.587h1.196v3.587h1.196v1.196h1.196v2.391h1.196v2.391h2.391
		v2.391h2.391v-1.196h1.196v1.196h-1.196v2.391h-1.196v-1.196h-2.391v-1.196h-1.196v-1.196h-1.196v-2.391h-2.391v-1.196h1.196
		v-1.196h-2.391v-3.587h-1.196v-2.391h-1.196v-4.783H41.28v-5.978h1.196v-1.196H41.28v-1.196h1.196v-1.196h3.587V76.532z
		 M62.801,76.532h1.196v1.196h1.196v1.196h1.196v1.196h1.196v1.196h-1.196v-1.196h-1.196v-1.196h-1.196v-1.196h-1.196V76.532z
		 M49.649,77.727h1.196v3.587h-1.196V77.727z M81.932,78.923h1.196v1.196h1.196v1.196h-1.196v2.391h-1.196v1.196h-1.196v-1.196
		h1.196v-2.391h1.196v-1.196h-1.196V78.923z M52.04,80.119h1.196v1.196h1.196v1.196h-1.196v-1.196H52.04V80.119z M68.78,80.119
		h1.196v2.391H68.78V80.119z M104.649,80.119h1.196v2.391h-1.196v1.196h-1.196v1.196h-1.196v-1.196h1.196V82.51h1.196V80.119z
		 M58.019,81.314h1.196v1.196h1.196v-1.196h1.196v1.196h1.196v2.391h-1.196V82.51H60.41v1.196h-1.196v2.391h-1.196v2.391h1.196
		v2.391h1.196v4.783h1.196v1.196h1.196v1.196h1.196v-1.196h1.196v1.196h-1.196v1.196h-1.196v-1.196H60.41v-1.196h-1.196v-4.783
		h-1.196v-3.587h-1.196v-2.391h1.196v-1.196h-1.196V82.51h1.196V81.314z M58.019,82.51v1.196h1.196V82.51H58.019z M71.171,81.314
		h1.196v1.196h1.196v2.391h-1.196V82.51h-1.196V81.314z M63.997,82.51h1.196v2.391h-1.196V82.51z M53.236,83.705h1.196v1.196h1.196
		v1.196h-1.196v-1.196h-1.196V83.705z M74.758,83.705h1.196v2.391h-1.196V83.705z M78.345,83.705h1.196v1.196h-1.196v1.196h-1.196
		v-1.196h1.196V83.705z M89.106,83.705h1.196v1.196h1.196v-1.196h1.196v1.196h-1.196v1.196h1.196v1.196h1.196v2.391h1.196v1.196
		h1.196v-2.391h2.391v-1.196h-1.196v-1.196h1.196v-1.196h2.391v1.196h-2.391v1.196h1.196v1.196h-1.196v1.196h-1.196v1.196H96.28
		v1.196h-1.196v-1.196h-1.196v-1.196h-1.196v-2.391h-1.196v-1.196h-1.196v-1.196h-1.196V83.705z M66.388,84.901h1.196v2.391h-1.196
		V84.901z M68.78,86.097h2.391v1.196h1.196v2.391h2.391v1.196h-2.391v-1.196h-1.196v-2.391H68.78V86.097z M102.258,86.097h1.196
		v2.391h-1.196v2.391h-1.196v1.196h-1.196v-1.196h1.196v-2.391h1.196V86.097z M53.236,87.292h1.196v1.196h-1.196V87.292z
		 M85.519,87.292h1.196v1.196h1.196v1.196h-1.196v-1.196h-1.196v1.196h-1.196v-1.196h1.196V87.292z M54.432,89.684h1.196v1.196
		h-1.196V89.684z M54.432,92.075h1.196v1.196h1.196v1.196h-1.196v-1.196h-1.196V92.075z M69.975,92.075h1.196v1.196h-1.196v2.391
		H68.78v-2.391h1.196V92.075z M72.367,92.075h1.196v1.196h-1.196V92.075z M78.345,92.075h3.587v2.391h-1.196v-1.196h-2.391v1.196
		h1.196v1.196h-1.196v1.196h-1.196v1.196h-1.196v-1.196h-1.196v2.391h1.196v1.196h1.196v1.196h-1.196v1.196h-1.196v-1.196h-1.196
		v-1.196h-1.196v-1.196h1.196v-2.391h1.196v-1.196h1.196v-1.196h1.196v-1.196h1.196V92.075z M77.149,94.466v1.196h1.196v-1.196
		H77.149z M75.953,95.662v1.196h1.196v-1.196H75.953z M73.562,99.249v1.196h1.196v-1.196H73.562z M74.758,100.445v1.196h1.196
		v-1.196H74.758z M83.127,93.271h2.391v1.196h1.196v1.196h2.391v1.196h2.391v1.196h1.196v1.196h-1.196v1.196h-1.196v1.196h1.196
		v1.196h-1.196v-1.196h-1.196v-1.196h1.196v-1.196h1.196v-1.196h-2.391v-1.196h-2.391v-1.196h-1.196v-1.196h-2.391V93.271z
		 M98.671,93.271h1.196v1.196h-1.196V93.271z M55.627,95.662h1.196v1.196h-1.196V95.662z M66.388,95.662h1.196v2.391h-1.196V95.662z
		 M98.671,95.662h1.196v1.196h1.196v1.196h-1.196v-1.196h-1.196V95.662z M54.432,99.249h1.196v1.196h1.196v1.196h-1.196v-1.196
		h-1.196V99.249z M99.867,99.249h1.196v1.196h1.196v1.196h1.196v-1.196h1.196v2.391h-2.391v-1.196h-1.196v-1.196h-1.196V99.249z
		 M78.345,100.445h1.196v1.196h1.196v1.196h-2.391V100.445z M81.932,100.445h1.196v2.391h-1.196V100.445z M84.323,100.445h1.196
		v2.391h-1.196V100.445z M86.714,100.445h1.196v2.391h-1.196V100.445z M95.084,101.64h1.196v3.587h1.196v-2.391h1.196v2.391h-1.196
		v1.196h1.196v1.196h1.196v1.196h-1.196v-1.196h-1.196v-1.196H96.28v-1.196h-1.196V101.64z M60.41,102.836h1.196v2.391h1.196v1.196
		h-1.196v-1.196H60.41v2.391h1.196v1.196H60.41v-1.196h-1.196v1.196h-1.196v1.196h-1.196v-1.196h1.196v-1.196h1.196v-3.587h1.196
		V102.836z M62.801,102.836h1.196v1.196h-1.196V102.836z M69.975,102.836h1.196v2.391h-1.196V102.836z M72.367,102.836h1.196v1.196
		h-1.196V102.836z M67.584,104.032h1.196v2.391h-1.196v1.196h-1.196v1.196h-1.196v-1.196h1.196v-1.196h1.196V104.032z
		 M74.758,104.032h1.196v2.391h-1.196V104.032z M77.149,104.032h1.196v1.196h1.196v1.196h-1.196v-1.196h-1.196V104.032z
		 M80.736,105.227h1.196v1.196h-1.196V105.227z M85.519,105.227h1.196v1.196h1.196v1.196h-1.196v-1.196h-1.196v1.196h-1.196v-1.196
		h1.196V105.227z M108.236,105.227h2.391v1.196h-1.196v1.196h1.196v1.196h-1.196v1.196h1.196v1.196h-1.196v1.196h1.196v4.783h-1.196
		v-2.391h-1.196v2.391h-1.196v-1.196h-7.174v1.196h-1.196v-1.196h-1.196v-2.391h9.565v1.196h1.196v-3.587h-1.196v-1.196h1.196
		V105.227z M98.671,114.792v1.196h1.196v-1.196H98.671z M89.106,106.423h1.196v1.196h1.196v2.391h-1.196v-2.391h-1.196V106.423z
		 M101.062,106.423h1.196v1.196h-1.196V106.423z M49.649,108.814h1.196v1.196h2.391v3.587h1.196v4.783h1.196v1.196h1.196v-1.196
		h1.196v-1.196h1.196v1.196h1.196v-1.196h3.587v2.391h-1.196v-1.196h-1.196v1.196h-3.587v1.196h-1.196v1.196h-1.196v-1.196h-1.196
		v1.196h-1.196v-3.587H52.04v-3.587h-1.196v-4.783h-1.196V108.814z M92.693,108.814h1.196v1.196h1.196v1.196h-1.196v2.391h-1.196
		v1.196h-1.196v-1.196h-1.196v1.196h-1.196v1.196H87.91v-1.196h-1.196v1.196h-3.587v1.196h-1.196v-1.196h-1.196v1.196H79.54v-1.196
		h-1.196v1.196h-1.196v-1.196h-1.196v1.196h-1.196v-1.196h-1.196v1.196h-1.196v-1.196H68.78v-1.196h-2.391v-1.196h-1.196v-1.196
		h-1.196v-1.196h1.196v-1.196h1.196v2.391h2.391v1.196h2.391v1.196h1.196v-1.196h1.196v1.196h8.37v-1.196h1.196v1.196h1.196v-1.196
		h3.587v-1.196h1.196v1.196h1.196v-2.391h1.196v1.196h1.196V108.814z M54.432,110.01h1.196v1.196h-1.196V110.01z M59.214,110.01
		h1.196v1.196h-1.196V110.01z M98.671,111.205h1.196v1.196h-1.196V111.205z M60.41,114.792h1.196v1.196H60.41V114.792z"/>
</g>
</svg>
