<?xml version="1.0" encoding="UTF-8"?>
<svg xmlns="http://www.w3.org/2000/svg" width="150" height="150" version="1.1" viewBox="0 0 150 150">
  <!-- Generator: Adobe Illustrator 28.6.0, SVG Export Plug-In . SVG Version: 1.2.0 Build 709)  -->
  <g>
    <g id="shapes">
      <path d="M113.917,40.952h-31.06v-20.952h-25.82c-8.884,0-16.085,7.199-16.085,16.082v31.06h-20.952v25.821c0,8.884,7.202,16.083,16.083,16.083h31.06v20.954h25.82c8.884,0,16.085-7.202,16.085-16.083v-31.06h20.952v-25.821c0-8.884-7.202-16.084-16.083-16.084ZM85.476,82.857v11.39c-4.32-5.346-10.925-8.771-18.333-8.771h-11.391c5.347-4.322,8.772-10.925,8.772-18.334v-11.39c4.32,5.345,10.925,8.771,18.333,8.771h11.391c-5.347,4.322-8.772,10.924-8.772,18.334Z"/>
    </g>
  </g>
</svg>