<?xml version="1.0" encoding="UTF-8"?>
<svg xmlns="http://www.w3.org/2000/svg" width="150" height="150" version="1.1" viewBox="0 0 150 150">
  <!-- Generator: Adobe Illustrator 28.6.0, SVG Export Plug-In . SVG Version: 1.2.0 Build 709)  -->
  <g>
    <g id="shapes">
      <g>
        <path d="M121.885,66.885h-7.704c-7.229,0-10.85-8.741-5.738-13.853l5.448-5.448c3.169-3.169,3.169-8.307,0-11.476h0c-3.169-3.169-8.307-3.169-11.476,0l-21.677,21.677c-3.169,3.169-8.307,3.169-11.476,0l-21.677-21.677c-3.169-3.169-8.307-3.169-11.476,0h0c-3.169,3.169-3.169,8.307,0,11.476l5.448,5.448c5.112,5.112,1.491,13.853-5.738,13.853h-7.704c-4.482,0-8.115,3.633-8.115,8.115h0c0,4.482,3.633,8.115,8.115,8.115h7.704c7.229,0,10.85,8.741,5.738,13.853l-5.448,5.448c-3.169,3.169-3.169,8.307,0,11.476h0c3.169,3.169,8.307,3.169,11.476,0l5.448-5.448c5.112-5.112,13.853-1.491,13.853,5.738v7.704c0,4.482,3.633,8.115,8.115,8.115h0c4.482,0,8.115-3.633,8.115-8.115v-7.704c0-7.229,8.741-10.85,13.853-5.738l5.448,5.448c3.169,3.169,8.307,3.169,11.476,0h0c3.169-3.169,3.169-8.307,0-11.476l-5.448-5.448c-5.112-5.112-1.491-13.853,5.738-13.853h7.704c4.482,0,8.115-3.633,8.115-8.115h0c0-4.482-3.633-8.115-8.115-8.115Z"/>
        <circle cx="75" cy="34.391" r="14.391"/>
      </g>
    </g>
  </g>
</svg>