<svg xmlns="http://www.w3.org/2000/svg" viewBox="0 0 160 160" fill="none">
  <rect width="160" height="160" fill="#090C10"/>
  <g opacity="0.25" fill="#C4FF58">
    <rect x="48" y="32" width="16" height="16"/>
    <rect x="64" y="32" width="16" height="16"/>
    <rect x="80" y="32" width="16" height="16"/>
    <rect x="32" y="48" width="16" height="16"/>
    <rect x="48" y="48" width="16" height="16"/>
    <rect x="64" y="48" width="16" height="16"/>
    <rect x="80" y="48" width="16" height="16"/>
    <rect x="96" y="48" width="16" height="16"/>
    <rect x="32" y="64" width="16" height="16"/>
    <rect x="48" y="64" width="16" height="16"/>
    <rect x="64" y="64" width="16" height="16"/>
    <rect x="80" y="64" width="16" height="16"/>
    <rect x="96" y="64" width="16" height="16"/>
    <rect x="48" y="80" width="16" height="16"/>
    <rect x="64" y="80" width="16" height="16"/>
    <rect x="80" y="80" width="16" height="16"/>
  </g>
</svg>
