<svg xmlns="http://www.w3.org/2000/svg" viewBox="0 0 160 160" fill="none">
  <rect width="160" height="160" fill="#090C10"/>
  <g opacity="0.22" fill="#A7A597">
    <rect x="64" y="24" width="16" height="16"/>
    <rect x="80" y="24" width="16" height="16"/>
    <rect x="48" y="40" width="16" height="16"/>
    <rect x="64" y="40" width="16" height="16"/>
    <rect x="80" y="40" width="16" height="16"/>
    <rect x="96" y="40" width="16" height="16"/>
    <rect x="32" y="56" width="16" height="16"/>
    <rect x="48" y="56" width="16" height="16"/>
    <rect x="64" y="56" width="16" height="16"/>
    <rect x="80" y="56" width="16" height="16"/>
    <rect x="96" y="56" width="16" height="16"/>
    <rect x="112" y="56" width="16" height="16"/>
    <rect x="32" y="72" width="16" height="16"/>
    <rect x="48" y="72" width="16" height="16"/>
    <rect x="64" y="72" width="16" height="16"/>
    <rect x="80" y="72" width="16" height="16"/>
    <rect x="96" y="72" width="16" height="16"/>
    <rect x="112" y="72" width="16" height="16"/>
    <rect x="48" y="88" width="16" height="16"/>
    <rect x="64" y="88" width="16" height="16"/>
    <rect x="80" y="88" width="16" height="16"/>
    <rect x="96" y="88" width="16" height="16"/>
    <rect x="64" y="104" width="16" height="16"/>
    <rect x="80" y="104" width="16" height="16"/>
  </g>
</svg>
